<?xml version="1.0" encoding="utf-8"?>
<!-- Generator: Adobe Illustrator 24.1.0, SVG Export Plug-In . SVG Version: 6.00 Build 0)  -->
<svg version="1.1" id="Layer_1" xmlns="http://www.w3.org/2000/svg" xmlns:xlink="http://www.w3.org/1999/xlink" x="0px" y="0px"
	 viewBox="0 0 216 72" style="enable-background:new 0 0 216 72;" xml:space="preserve">
<style type="text/css">
	.st0{fill:#414950;}
	.st1{fill:#BBA130;}
</style>
<g>
	<g>
		<g>
			<path class="st0" d="M69.39,19.68c-2.05,0-4.1,0-6.23,0c0,0.77,0,1.44,0,2.33c-1.1-1.17-2.27-1.84-3.63-2.17
				c-8.2-1.93-16.06,5.79-14.49,14.24c0.81,4.34,3.28,7.44,7.26,9.15c3.72,1.6,7.44,1.62,10.77-1.24c0.68,3.94-0.89,7.07-3.96,8.04
				c-3.3,1.05-6.03-0.42-7.93-4.25c-2.05,0-4.09,0-6.14,0c0.69,8.05,9.89,13.23,17.24,9.66c4.77-2.32,7.22-6.24,7.22-11.61
				c0-7.76,0-15.51,0-23.27C69.5,20.27,69.58,19.95,69.39,19.68z M57.16,38.02c-3.32,0-6.06-2.77-6.04-6.12
				c0.02-3.4,2.69-6.07,6.06-6.06c3.42,0.02,6.01,2.64,6.01,6.08C63.19,35.31,60.51,38.02,57.16,38.02z"/>
			<path class="st0" d="M206.93,19.6c0,0.81,0,1.56,0,2.62c-1.07-1.08-1.99-1.8-3.16-2.17c-7.82-2.51-16.81,4.32-15.36,13.77
				c1.41,9.18,12.81,13.51,18.5,7.93c0,0.88,0,1.66,0,2.46c2.28,0,4.44,0,6.65,0c0-8.23,0-16.38,0-24.61
				C211.33,19.6,209.17,19.6,206.93,19.6z M200.46,37.97c-3.3-0.06-5.96-2.82-5.96-6.19c0-3.41,2.68-5.97,6.23-5.96
				c3.22,0.01,5.9,2.7,5.92,5.94C206.67,35.21,203.85,38.03,200.46,37.97z"/>
			<path class="st0" d="M152.11,22.15c-3.1-2.99-5.91-2.85-8.59-2.4c-5.49,0.92-9.74,5.76-10.06,11.2
				c-0.34,5.88,3.29,11.21,8.85,12.75c2.87,0.8,5.77,0.86,8.41-0.89c0.45-0.3,0.84-0.68,1.43-1.17c0,1.02,0,1.81,0,2.56
				c2.26,0,4.43,0,6.58,0c0-8.25,0-16.41,0-24.6c-2.22,0-4.39,0-6.63,0C152.11,20.42,152.11,21.18,152.11,22.15z M145.79,37.95
				c-3.38,0.02-6.14-2.76-6.12-6.15c0.03-3.42,2.71-5.99,6.23-5.98c3.3,0.01,5.93,2.68,5.94,6.03
				C151.86,35.18,149.12,37.94,145.79,37.95z"/>
			<path class="st0" d="M174.13,30.32c-1.55-3.73-2.99-7.22-4.42-10.67c-2.48,0-4.84,0-7.18,0c-0.15,0.37,0.07,0.58,0.17,0.82
				c2.26,5.41,4.43,10.86,6.85,16.19c0.95,2.08,1.08,3.86,0.12,5.95c-0.92,2-2.25,3.34-4.31,3.99c-0.65,0.2-1.34,0.28-2.06,0.42
				c0,2.25,0,4.38,0,6.56c0.26,0.02,0.44,0.05,0.63,0.05c5.41-0.19,10.06-3.49,11.99-8.58c2.31-6.09,4.59-12.19,6.88-18.28
				c0.89-2.35,1.78-4.7,2.69-7.12c-2.55,0-4.96,0-7.41,0C176.79,23.15,175.5,26.63,174.13,30.32z"/>
			<path class="st0" d="M94.92,18.55c1.12-1.48,2.82-0.8,4.27-1.08c0-2.21,0-4.37,0-6.59c-1.44,0-2.78,0-4.12,0
				c-4.8,0.02-7.47,2.69-7.47,7.49c0,1.48,0,2.96,0,4.51c-1.49,0-2.83,0-4.23,0c0,2.24,0,4.41,0,6.67c1.43,0,2.79,0,4.27,0
				c0,4.95,0,9.8,0,14.69c2.25,0,4.39,0,6.71,0c0-4.92,0-9.74,0-14.69c1.67,0,3.26,0,4.86,0c0-2.3,0-4.46,0-6.75
				c-1.68,0-3.26,0-4.91,0C94.41,21.28,93.98,19.82,94.92,18.55z"/>
			<path class="st0" d="M115.02,11.06c-2.25,0-4.42,0-6.71,0c0,2.88,0,5.69,0,8.61c-1.91,0-3.69,0-5.42,0c0,2.28,0,4.44,0,6.67
				c1.84,0,3.6,0,5.46,0c0,6,0,11.92,0,17.89c2.25,0,4.39,0,6.74,0c0-6.02,0-11.94,0-17.95c1.88,0,3.63,0,5.41,0
				c0-2.25,0-4.42,0-6.71c-1.84,0-3.62,0-5.47,0C115.02,16.67,115.02,13.88,115.02,11.06z"/>
			<path class="st0" d="M124.16,44.21c2.24,0,4.41,0,6.56,0c0-11.09,0-22.11,0-33.15c-2.24,0-4.38,0-6.56,0
				C124.16,22.16,124.16,33.19,124.16,44.21z"/>
			<path class="st0" d="M73.12,44.21c2.24,0,4.4,0,6.53,0c0-8.23,0-16.38,0-24.54c-2.2,0-4.31,0-6.53,0
				C73.12,27.92,73.12,36.07,73.12,44.21z"/>
			<path class="st0" d="M79.64,10.95c-2.23,0-4.36,0-6.54,0c0,1.86,0,3.66,0,5.53c2.26,0,4.42,0,6.54,0
				C79.64,14.57,79.64,12.75,79.64,10.95z"/>
		</g>
	</g>
	<polygon class="st1" points="28.83,27.25 20.91,19.01 19.77,20.06 26.92,27.26 22.05,31.94 14.13,23.87 22.15,15.92 33.18,27.06 
		26,34.28 26.93,35.22 35.25,26.91 22.07,13.73 8.8,27.07 27.02,45.2 24.72,47.43 4.67,26.99 15.81,15.84 17.05,17.1 18.07,16.24 
		15.73,13.87 2.62,27.14 14.66,39.27 8.97,45.07 16.93,53.27 18.07,52.21 10.88,45.05 15.73,40.35 23.72,48.4 15.71,56.17 
		4.73,45.1 11.71,38.05 10.61,37.04 2.62,45.1 15.71,58.37 28.97,45.03 10.98,26.99 13.14,24.85 33.03,45.35 21.84,56.44 
		20.6,55.17 19.58,56.03 21.91,58.41 35.09,45.21 23.11,33.02 	"/>
</g>
</svg>
