<svg width="1440" height="600" viewBox="0 0 1440 600" fill="none" xmlns="http://www.w3.org/2000/svg">
<g opacity="0.6">
<g clip-path="url(#clip0_1568_35018)">
<path fill-rule="evenodd" clip-rule="evenodd" d="M1391.99 -1.49981L0 -1.5C-0.276142 -1.5 -0.5 -1.27614 -0.5 -1C-0.5 -0.982057 -0.499055 -0.964335 -0.497212 -0.94688C-0.498988 -0.929739 -0.499899 -0.91234 -0.499899 -0.894729L-0.499905 47.1231L-0.5 47.1329L-0.499905 47.1427L-0.499912 95.2569L-0.5 95.2663L-0.499912 95.2758L-0.499919 143.39L-0.5 143.399L-0.499919 143.408L-0.499926 191.524L-0.5 191.533L-0.499926 191.542L-0.499932 239.658L-0.5 239.666L-0.499932 239.674L-0.499939 287.791L-0.5 287.799L-0.499939 287.807L-0.499946 335.925L-0.5 335.933L-0.499946 335.94L-0.499953 384.059L-0.5 384.066L-0.499953 384.073L-0.499959 432.192L-0.5 432.199L-0.499959 432.205L-0.499966 480.327L-0.5 480.333L-0.499966 480.338L-0.499973 528.46L-0.5 528.466L-0.499973 528.471L-0.49998 576.594L-0.5 576.598L-0.49998 576.603L-0.499986 624.729L-0.5 624.732L-0.499986 624.736L-0.499993 672.863L-0.5 672.865L-0.499993 672.868L-0.5 720.994L-0.499995 720.996L-0.5 720.998C-0.5 721.274 -0.276143 721.498 0 721.498L1439.98 721.499C1440.23 721.499 1440.45 721.302 1440.47 721.05C1440.48 721.041 1440.48 721.032 1440.48 721.022L1440.49 721.005L1440.49 720.99L1440.49 720.979C1440.5 720.95 1440.5 720.92 1440.5 720.889V-1C1440.5 -1.27614 1440.28 -1.5 1440 -1.5C1439.99 -1.5 1439.99 -1.49992 1439.98 -1.49975C1439.98 -1.49978 1439.98 -1.4998 1439.98 -1.4998L1392.01 -1.49981C1392.01 -1.49994 1392 -1.5 1392 -1.5C1391.99 -1.5 1391.99 -1.49994 1391.99 -1.49981ZM1439.5 -0.499801V46.6331L1392.5 46.6331V-0.499808L1439.5 -0.499801ZM0.500101 -0.5L0.500095 46.6329L47.4998 46.6329L47.4998 -0.499993L0.500101 -0.5ZM48.4998 -0.499993L48.4998 46.6329L95.4995 46.6329V-0.499987L48.4998 -0.499993ZM96.4995 -0.499987V46.6329L143.5 46.6329V-0.49998L96.4995 -0.499987ZM144.5 -0.49998V46.6329L191.501 46.6329L191.501 -0.499974L144.5 -0.49998ZM192.501 -0.499973L192.501 46.6329L239.501 46.633V-0.499967L192.501 -0.499973ZM240.501 -0.499967V46.633L287.5 46.633V-0.49996L240.501 -0.499967ZM288.5 -0.49996V46.633L335.501 46.633L335.501 -0.499954L288.5 -0.49996ZM336.501 -0.499954L336.501 46.633L383.501 46.633V-0.499947L336.501 -0.499954ZM384.501 -0.499947V46.633L431.502 46.633V-0.49994L384.501 -0.499947ZM432.502 -0.49994V46.633L479.501 46.633V-0.499934L432.502 -0.49994ZM480.501 -0.499934V46.633L527.501 46.633V-0.499927L480.501 -0.499934ZM528.501 -0.499927V46.633L575.501 46.633V-0.49992L528.501 -0.499927ZM576.501 -0.49992V46.633L623.501 46.633V-0.499914L576.501 -0.49992ZM624.501 -0.499914V46.633L671.501 46.633V-0.499907L624.501 -0.499914ZM672.501 -0.499907V46.633L719.501 46.633V-0.499901L672.501 -0.499907ZM720.501 -0.4999V46.633L767.501 46.633V-0.499894L720.501 -0.4999ZM768.501 -0.499894V46.633L815.5 46.633V-0.499887L768.501 -0.499894ZM816.5 -0.499887V46.633L863.5 46.633V-0.499881L816.5 -0.499887ZM864.5 -0.499881V46.633L911.5 46.633V-0.499874L864.5 -0.499881ZM912.5 -0.499874V46.633L959.501 46.6331V-0.499868L912.5 -0.499874ZM960.501 -0.499867V46.6331L1007.5 46.6331V-0.499861L960.501 -0.499867ZM1008.5 -0.499861V46.6331L1055.5 46.6331V-0.499854L1008.5 -0.499861ZM1056.5 -0.499854V46.6331L1103.5 46.6331V-0.499848L1056.5 -0.499854ZM1104.5 -0.499848V46.6331L1151.5 46.6331V-0.499841L1104.5 -0.499848ZM1152.5 -0.499841V46.6331L1199.5 46.6331V-0.499834L1152.5 -0.499841ZM1200.5 -0.499834V46.6331L1247.5 46.6331V-0.499828L1200.5 -0.499834ZM1248.5 -0.499828V46.6331L1295.5 46.6331V-0.499821L1248.5 -0.499828ZM1296.5 -0.499821V46.6331L1343.5 46.6331V-0.499815L1296.5 -0.499821ZM1344.5 -0.499814V46.6331L1391.5 46.6331V-0.499808L1344.5 -0.499814ZM1344.5 47.6331L1391.5 47.6331V94.7663H1344.5V47.6331ZM1296.5 47.6331L1343.5 47.6331V94.7663H1296.5V47.6331ZM1248.5 47.6331L1295.5 47.6331V94.7663H1248.5V47.6331ZM1200.5 47.6331L1247.5 47.6331V94.7663H1200.5V47.6331ZM1152.5 47.6331L1199.5 47.6331V94.7663H1152.5V47.6331ZM1104.5 47.6331L1151.5 47.6331V94.7663H1104.5V47.6331ZM1056.5 47.6331L1103.5 47.6331V94.7663H1056.5V47.6331ZM1008.5 47.6331L1055.5 47.6331V94.7663H1008.5V47.6331ZM960.501 47.6331L1007.5 47.6331V94.7663H960.501V47.6331ZM912.5 47.633L959.501 47.6331V94.7663H912.5V47.633ZM864.5 47.633L911.5 47.633V94.7663H864.5V47.633ZM816.5 47.633L863.5 47.633V94.7663H816.5V47.633ZM768.501 47.633L815.5 47.633V94.7663H768.501V47.633ZM720.501 47.633L767.501 47.633V94.7663H720.501V47.633ZM672.501 47.633L719.501 47.633V94.7663H672.501V47.633ZM624.501 47.633L671.501 47.633V94.7663H624.501V47.633ZM576.501 47.633L623.501 47.633V94.7663H576.501V47.633ZM528.501 47.633L575.501 47.633V94.7663H528.501V47.633ZM480.501 47.633L527.501 47.633V94.7663H480.501V47.633ZM432.502 47.633L479.501 47.633V94.7663H432.502V47.633ZM384.501 47.633L431.502 47.633V94.7663H384.501V47.633ZM336.501 47.633L383.501 47.633V94.7663H336.501L336.501 47.633ZM288.5 47.633L335.501 47.633L335.501 94.7663H288.5V47.633ZM240.501 47.633L287.5 47.633V94.7663H240.501V47.633ZM192.501 47.6329L239.501 47.633V94.7663H192.501L192.501 47.6329ZM144.5 47.6329L191.501 47.6329L191.501 94.7663H144.5V47.6329ZM96.4995 47.6329L143.5 47.6329V94.7663H96.4995V47.6329ZM48.4998 47.6329L95.4995 47.6329V94.7663H48.4998L48.4998 47.6329ZM0.500095 47.6329L47.4998 47.6329L47.4998 94.7663H0.500088L0.500095 47.6329ZM1439.5 47.6331L1392.5 47.6331V94.7663H1439.5V47.6331ZM1391.5 95.7663H1344.5V142.9L1391.5 142.9V95.7663ZM1343.5 95.7663H1296.5V142.9L1343.5 142.9V95.7663ZM1295.5 95.7663H1248.5V142.9L1295.5 142.9V95.7663ZM1247.5 95.7663H1200.5V142.9L1247.5 142.9V95.7663ZM1199.5 95.7663H1152.5V142.9L1199.5 142.9V95.7663ZM1151.5 95.7663H1104.5V142.9L1151.5 142.9V95.7663ZM1103.5 95.7663H1056.5V142.9L1103.5 142.9V95.7663ZM1055.5 95.7663H1008.5V142.9L1055.5 142.9V95.7663ZM1007.5 95.7663H960.501V142.9L1007.5 142.9V95.7663ZM959.501 95.7663H912.5V142.9L959.501 142.9V95.7663ZM911.5 95.7663H864.5V142.9L911.5 142.9V95.7663ZM863.5 95.7663H816.5V142.9L863.5 142.9V95.7663ZM815.5 95.7663H768.501V142.9L815.5 142.9V95.7663ZM767.501 95.7663H720.501V142.9L767.501 142.9V95.7663ZM719.501 95.7663H672.501V142.9L719.501 142.9V95.7663ZM671.501 95.7663H624.501V142.9L671.501 142.9V95.7663ZM623.501 95.7663H576.501V142.9L623.501 142.9V95.7663ZM575.501 95.7663H528.501V142.9L575.501 142.9V95.7663ZM527.501 95.7663H480.501V142.9L527.501 142.9V95.7663ZM479.501 95.7663H432.502V142.9L479.501 142.9V95.7663ZM431.502 95.7663H384.501V142.9L431.502 142.9V95.7663ZM383.501 95.7663H336.501L336.501 142.899L383.501 142.9V95.7663ZM335.501 95.7663H288.5V142.899L335.501 142.899L335.501 95.7663ZM287.5 95.7663H240.501V142.899L287.5 142.899V95.7663ZM239.501 95.7663H192.501L192.501 142.899L239.501 142.899V95.7663ZM191.501 95.7663H144.5V142.899L191.501 142.899L191.501 95.7663ZM143.5 95.7663H96.4995V142.899L143.5 142.899V95.7663ZM95.4995 95.7663H48.4998L48.4998 142.899L95.4995 142.899V95.7663ZM47.4998 95.7663H0.500088L0.500081 142.899L47.4998 142.899L47.4998 95.7663ZM1439.5 95.7663H1392.5V142.9L1439.5 142.9V95.7663ZM1344.5 143.9L1391.5 143.9V191.033H1344.5V143.9ZM1296.5 143.9L1343.5 143.9V191.033H1296.5V143.9ZM1248.5 143.9L1295.5 143.9V191.033H1248.5V143.9ZM1200.5 143.9L1247.5 143.9V191.033H1200.5V143.9ZM1152.5 143.9L1199.5 143.9V191.033H1152.5V143.9ZM1104.5 143.9L1151.5 143.9V191.033H1104.5V143.9ZM1056.5 143.9L1103.5 143.9V191.033H1056.5V143.9ZM1008.5 143.9L1055.5 143.9V191.033H1008.5V143.9ZM960.501 143.9L1007.5 143.9V191.033H960.501V143.9ZM912.5 143.9L959.501 143.9V191.033H912.5V143.9ZM864.5 143.9L911.5 143.9V191.033H864.5V143.9ZM816.5 143.9L863.5 143.9V191.033H816.5V143.9ZM768.501 143.9L815.5 143.9V191.033H768.501V143.9ZM720.501 143.9L767.501 143.9V191.033H720.501V143.9ZM672.501 143.9L719.501 143.9V191.033H672.501V143.9ZM624.501 143.9L671.501 143.9V191.033H624.501V143.9ZM576.501 143.9L623.501 143.9V191.033H576.501V143.9ZM528.501 143.9L575.501 143.9V191.033H528.501V143.9ZM480.501 143.9L527.501 143.9V191.033H480.501V143.9ZM432.502 143.9L479.501 143.9V191.033H432.502V143.9ZM384.501 143.9L431.502 143.9V191.033H384.501V143.9ZM336.501 143.899L383.501 143.9V191.033H336.501L336.501 143.899ZM288.5 143.899L335.501 143.899L335.501 191.033H288.5V143.899ZM240.501 143.899L287.5 143.899V191.033H240.501V143.899ZM192.501 143.899L239.501 143.899V191.033H192.501L192.501 143.899ZM144.5 143.899L191.501 143.899L191.501 191.033H144.5V143.899ZM96.4995 143.899L143.5 143.899V191.033H96.4995V143.899ZM48.4998 143.899L95.4995 143.899V191.033H48.4998L48.4998 143.899ZM0.500081 143.899L47.4998 143.899L47.4998 191.033H0.500075L0.500081 143.899ZM1439.5 143.9L1392.5 143.9V191.033H1439.5V143.9ZM1391.5 192.033H1344.5V239.166H1391.5V192.033ZM1343.5 192.033H1296.5V239.166H1343.5V192.033ZM1295.5 192.033H1248.5V239.166H1295.5V192.033ZM1247.5 192.033H1200.5V239.166H1247.5V192.033ZM1199.5 192.033H1152.5V239.166H1199.5V192.033ZM1151.5 192.033H1104.5V239.166H1151.5V192.033ZM1103.5 192.033H1056.5V239.166H1103.5V192.033ZM1055.5 192.033H1008.5V239.166H1055.5V192.033ZM1007.5 192.033H960.501V239.166H1007.5V192.033ZM959.501 192.033H912.5V239.166H959.501V192.033ZM911.5 192.033H864.5V239.166H911.5V192.033ZM863.5 192.033H816.5V239.166H863.5V192.033ZM815.5 192.033H768.501V239.166H815.5V192.033ZM767.501 192.033H720.501V239.166H767.501V192.033ZM719.501 192.033H672.501V239.166H719.501V192.033ZM671.501 192.033H624.501V239.166H671.501V192.033ZM623.501 192.033H576.501V239.166H623.501V192.033ZM575.501 192.033H528.501V239.166H575.501V192.033ZM527.501 192.033H480.501V239.166H527.501V192.033ZM479.501 192.033H432.502V239.166H479.501V192.033ZM431.502 192.033H384.501V239.166H431.502V192.033ZM383.501 192.033H336.501L336.501 239.166H383.501V192.033ZM335.501 192.033H288.5V239.166H335.501L335.501 192.033ZM287.5 192.033H240.501V239.166H287.5V192.033ZM239.501 192.033H192.501L192.501 239.166H239.501V192.033ZM191.501 192.033H144.5V239.166H191.501L191.501 192.033ZM143.5 192.033H96.4995V239.166H143.5V192.033ZM95.4995 192.033H48.4998L48.4998 239.166H95.4995V192.033ZM47.4998 192.033H0.500074L0.500068 239.166H47.4998L47.4998 192.033ZM1439.5 192.033H1392.5V239.166H1439.5V192.033ZM1344.5 240.166H1391.5V287.3L1344.5 287.3V240.166ZM1296.5 240.166H1343.5V287.3L1296.5 287.3V240.166ZM1248.5 240.166H1295.5V287.3L1248.5 287.3V240.166ZM1200.5 240.166H1247.5V287.3L1200.5 287.3V240.166ZM1152.5 240.166H1199.5V287.3L1152.5 287.3V240.166ZM1104.5 240.166H1151.5V287.3L1104.5 287.3V240.166ZM1056.5 240.166H1103.5V287.3L1056.5 287.3V240.166ZM1008.5 240.166H1055.5V287.3L1008.5 287.3V240.166ZM960.501 240.166H1007.5V287.3L960.501 287.3V240.166ZM912.5 240.166H959.501V287.3L912.5 287.3V240.166ZM864.5 240.166H911.5V287.3L864.5 287.3V240.166ZM816.5 240.166H863.5V287.3L816.5 287.3V240.166ZM768.501 240.166H815.5V287.3L768.501 287.3V240.166ZM720.501 240.166H767.501V287.3L720.501 287.3V240.166ZM672.501 240.166H719.501V287.299L672.501 287.299V240.166ZM624.501 240.166H671.501V287.299L624.501 287.299V240.166ZM576.501 240.166H623.501V287.299L576.501 287.299V240.166ZM528.501 240.166H575.501V287.299L528.501 287.299V240.166ZM480.501 240.166H527.501V287.299L480.501 287.299V240.166ZM432.502 240.166H479.501V287.299L432.502 287.299V240.166ZM384.501 240.166H431.502V287.299L384.501 287.299V240.166ZM336.501 240.166H383.501V287.299L336.501 287.299L336.501 240.166ZM288.5 240.166H335.501L335.501 287.299L288.5 287.299V240.166ZM240.501 240.166H287.5V287.299L240.501 287.299V240.166ZM192.501 240.166H239.501V287.299L192.501 287.299L192.501 240.166ZM144.5 240.166H191.501L191.501 287.299L144.5 287.299V240.166ZM96.4995 240.166H143.5V287.299L96.4995 287.299V240.166ZM48.4998 240.166H95.4995V287.299L48.4998 287.299L48.4998 240.166ZM0.500068 240.166H47.4998L47.4998 287.299L0.500061 287.299L0.500068 240.166ZM1439.5 240.166H1392.5V287.3L1439.5 287.3V240.166ZM1391.5 288.3L1344.5 288.3V335.433H1391.5V288.3ZM1343.5 288.3L1296.5 288.3V335.433H1343.5V288.3ZM1295.5 288.3L1248.5 288.3V335.433H1295.5V288.3ZM1247.5 288.3L1200.5 288.3V335.433H1247.5V288.3ZM1199.5 288.3L1152.5 288.3V335.433H1199.5V288.3ZM1151.5 288.3L1104.5 288.3V335.433H1151.5V288.3ZM1103.5 288.3L1056.5 288.3V335.433H1103.5V288.3ZM1055.5 288.3L1008.5 288.3V335.433H1055.5V288.3ZM1007.5 288.3L960.501 288.3V335.433H1007.5V288.3ZM959.501 288.3L912.5 288.3V335.433H959.501V288.3ZM911.5 288.3L864.5 288.3V335.433H911.5V288.3ZM863.5 288.3L816.5 288.3V335.433H863.5V288.3ZM815.5 288.3L768.501 288.3V335.433H815.5V288.3ZM767.501 288.3L720.501 288.3V335.433H767.501V288.3ZM719.501 288.299L672.501 288.299V335.433H719.501V288.299ZM671.501 288.299L624.501 288.299V335.433H671.501V288.299ZM623.501 288.299L576.501 288.299V335.433H623.501V288.299ZM575.501 288.299L528.501 288.299V335.433H575.501V288.299ZM527.501 288.299L480.501 288.299V335.433H527.501V288.299ZM479.501 288.299L432.502 288.299V335.433H479.501V288.299ZM431.502 288.299L384.501 288.299V335.433H431.502V288.299ZM383.501 288.299L336.501 288.299L336.501 335.433H383.501V288.299ZM335.501 288.299L288.5 288.299V335.433H335.501L335.501 288.299ZM287.5 288.299L240.501 288.299V335.433H287.5V288.299ZM239.501 288.299L192.501 288.299L192.501 335.433H239.501V288.299ZM191.501 288.299L144.5 288.299V335.433H191.501L191.501 288.299ZM143.5 288.299L96.4995 288.299V335.433H143.5V288.299ZM95.4995 288.299L48.4998 288.299L48.4998 335.433H95.4995V288.299ZM47.4998 288.299L0.500061 288.299L0.500054 335.433H47.4998L47.4998 288.299ZM1439.5 288.3L1392.5 288.3V335.433H1439.5V288.3ZM1344.5 336.433H1391.5V383.566H1344.5V336.433ZM1296.5 336.433H1343.5V383.566H1296.5V336.433ZM1248.5 336.433H1295.5V383.566H1248.5V336.433ZM1200.5 336.433H1247.5V383.566H1200.5V336.433ZM1152.5 336.433H1199.5V383.566H1152.5V336.433ZM1104.5 336.433H1151.5V383.566H1104.5V336.433ZM1056.5 336.433H1103.5V383.566H1056.5V336.433ZM1008.5 336.433H1055.5V383.566H1008.5V336.433ZM960.501 336.433H1007.5V383.566H960.501V336.433ZM912.5 336.433H959.501V383.566H912.5V336.433ZM864.5 336.433H911.5V383.566H864.5V336.433ZM816.5 336.433H863.5V383.566H816.5V336.433ZM768.501 336.433H815.5V383.566H768.501V336.433ZM720.501 336.433H767.501V383.566H720.501V336.433ZM672.501 336.433H719.501V383.566H672.501V336.433ZM624.501 336.433H671.501V383.566H624.501V336.433ZM576.501 336.433H623.501V383.566H576.501V336.433ZM528.501 336.433H575.501V383.566H528.501V336.433ZM480.501 336.433H527.501V383.566H480.501V336.433ZM432.502 336.433H479.501V383.566H432.502V336.433ZM384.501 336.433H431.502V383.566H384.501V336.433ZM336.501 336.433H383.501V383.566H336.501L336.501 336.433ZM288.5 336.433H335.501L335.501 383.566H288.5V336.433ZM240.501 336.433H287.5V383.566H240.501V336.433ZM192.501 336.433H239.501V383.566H192.5L192.501 336.433ZM144.5 336.433H191.501L191.5 383.566H144.5V336.433ZM96.4995 336.433H143.5V383.566H96.4995V336.433ZM48.4998 336.433H95.4995V383.566H48.4998L48.4998 336.433ZM0.500054 336.433H47.4998L47.4998 383.566H0.500048L0.500054 336.433ZM1439.5 336.433H1392.5V383.566H1439.5V336.433ZM1391.5 384.566H1344.5V431.7L1391.5 431.7V384.566ZM1343.5 384.566H1296.5V431.7L1343.5 431.7V384.566ZM1295.5 384.566H1248.5V431.7L1295.5 431.7V384.566ZM1247.5 384.566H1200.5V431.7L1247.5 431.7V384.566ZM1199.5 384.566H1152.5V431.7L1199.5 431.7V384.566ZM1151.5 384.566H1104.5V431.7L1151.5 431.7V384.566ZM1103.5 384.566H1056.5V431.7L1103.5 431.7V384.566ZM1055.5 384.566H1008.5V431.699L1055.5 431.7V384.566ZM1007.5 384.566H960.501V431.699L1007.5 431.699V384.566ZM959.501 384.566H912.5V431.699L959.501 431.699V384.566ZM911.5 384.566H864.5V431.699L911.5 431.699V384.566ZM863.5 384.566H816.5V431.699L863.5 431.699V384.566ZM815.5 384.566H768.501V431.699L815.5 431.699V384.566ZM767.501 384.566H720.501V431.699L767.501 431.699V384.566ZM719.501 384.566H672.501V431.699L719.501 431.699V384.566ZM671.501 384.566H624.501V431.699L671.501 431.699V384.566ZM623.501 384.566H576.501V431.699L623.501 431.699V384.566ZM575.501 384.566H528.501V431.699L575.501 431.699V384.566ZM527.501 384.566H480.501V431.699L527.501 431.699V384.566ZM479.501 384.566H432.502V431.699L479.501 431.699V384.566ZM431.502 384.566H384.501V431.699L431.502 431.699V384.566ZM383.501 384.566H336.501L336.501 431.699L383.501 431.699V384.566ZM335.501 384.566H288.5V431.699L335.501 431.699L335.501 384.566ZM287.5 384.566H240.501V431.699L287.5 431.699V384.566ZM239.501 384.566H192.5L192.5 431.699L239.501 431.699V384.566ZM191.5 384.566H144.5V431.699L191.5 431.699L191.5 384.566ZM143.5 384.566H96.4995V431.699L143.5 431.699V384.566ZM95.4995 384.566H48.4998L48.4998 431.699L95.4995 431.699V384.566ZM47.4998 384.566H0.500047L0.500041 431.699L47.4998 431.699L47.4998 384.566ZM1439.5 384.566H1392.5V431.7L1439.5 431.7V384.566ZM1344.5 432.7L1391.5 432.7V479.833H1344.5V432.7ZM1296.5 432.7L1343.5 432.7V479.833H1296.5V432.7ZM1248.5 432.7L1295.5 432.7V479.833H1248.5V432.7ZM1200.5 432.7L1247.5 432.7V479.833H1200.5V432.7ZM1152.5 432.7L1199.5 432.7V479.833H1152.5V432.7ZM1104.5 432.7L1151.5 432.7V479.833H1104.5V432.7ZM1056.5 432.7L1103.5 432.7V479.833H1056.5V432.7ZM1008.5 432.699L1055.5 432.7V479.833H1008.5V432.699ZM960.501 432.699L1007.5 432.699V479.833H960.501V432.699ZM912.5 432.699L959.501 432.699V479.833H912.5V432.699ZM864.5 432.699L911.5 432.699V479.833H864.5V432.699ZM816.5 432.699L863.5 432.699V479.833H816.5V432.699ZM768.501 432.699L815.5 432.699V479.833H768.501V432.699ZM720.501 432.699L767.501 432.699V479.833H720.501V432.699ZM672.501 432.699L719.501 432.699V479.833H672.501V432.699ZM624.501 432.699L671.501 432.699V479.833H624.501V432.699ZM576.501 432.699L623.501 432.699V479.833H576.501V432.699ZM528.501 432.699L575.501 432.699V479.833H528.501V432.699ZM480.501 432.699L527.501 432.699V479.833H480.501V432.699ZM432.502 432.699L479.501 432.699V479.833H432.502V432.699ZM384.501 432.699L431.502 432.699V479.833H384.501V432.699ZM336.5 432.699L383.501 432.699V479.833H336.5L336.5 432.699ZM288.5 432.699L335.5 432.699L335.5 479.833H288.5V432.699ZM240.501 432.699L287.5 432.699V479.833H240.501V432.699ZM192.5 432.699L239.501 432.699V479.833H192.5L192.5 432.699ZM144.5 432.699L191.5 432.699L191.5 479.833H144.5V432.699ZM96.4995 432.699L143.5 432.699V479.833H96.4995V432.699ZM48.4998 432.699L95.4995 432.699V479.833H48.4998L48.4998 432.699ZM0.500041 432.699L47.4998 432.699L47.4998 479.833H0.500034L0.500041 432.699ZM1439.5 432.7L1392.5 432.7V479.833H1439.5V432.7ZM1391.5 480.833H1344.5V527.966H1391.5V480.833ZM1343.5 480.833H1296.5V527.966H1343.5V480.833ZM1295.5 480.833H1248.5V527.966H1295.5V480.833ZM1247.5 480.833H1200.5V527.966H1247.5V480.833ZM1199.5 480.833H1152.5V527.966H1199.5V480.833ZM1151.5 480.833H1104.5V527.966H1151.5V480.833ZM1103.5 480.833H1056.5V527.966H1103.5V480.833ZM1055.5 480.833H1008.5V527.966H1055.5V480.833ZM1007.5 480.833H960.501V527.966H1007.5V480.833ZM959.501 480.833H912.5V527.966H959.501V480.833ZM911.5 480.833H864.5V527.966H911.5V480.833ZM863.5 480.833H816.5V527.966H863.5V480.833ZM815.5 480.833H768.501V527.966H815.5V480.833ZM767.501 480.833H720.501V527.966H767.501V480.833ZM719.501 480.833H672.501V527.966H719.501V480.833ZM671.501 480.833H624.501V527.966H671.501V480.833ZM623.501 480.833H576.501V527.966H623.501V480.833ZM575.501 480.833H528.501V527.966H575.501V480.833ZM527.501 480.833H480.501V527.966H527.501V480.833ZM479.501 480.833H432.502V527.966H479.501V480.833ZM431.502 480.833H384.501V527.966H431.502V480.833ZM383.501 480.833H336.5L336.5 527.966H383.501V480.833ZM335.5 480.833H288.5V527.966H335.5L335.5 480.833ZM287.5 480.833H240.501V527.966H287.5V480.833ZM239.501 480.833H192.5L192.5 527.966H239.501V480.833ZM191.5 480.833H144.5V527.966H191.5L191.5 480.833ZM143.5 480.833H96.4995V527.966H143.5V480.833ZM95.4995 480.833H48.4998L48.4998 527.966H95.4995V480.833ZM47.4998 480.833H0.500034L0.500027 527.966H47.4998L47.4998 480.833ZM1439.5 480.833H1392.5V527.966H1439.5V480.833ZM1344.5 528.966H1391.5V576.099H1344.5V528.966ZM1296.5 528.966H1343.5V576.099L1296.5 576.099V528.966ZM1248.5 528.966H1295.5V576.099H1248.5V528.966ZM1200.5 528.966H1247.5V576.099L1200.5 576.099V528.966ZM1152.5 528.966H1199.5V576.099L1152.5 576.099V528.966ZM1104.5 528.966H1151.5V576.099H1104.5V528.966ZM1056.5 528.966H1103.5V576.099L1056.5 576.099V528.966ZM1008.5 528.966H1055.5V576.099H1008.5V528.966ZM960.501 528.966H1007.5V576.099L960.501 576.099V528.966ZM912.5 528.966H959.501V576.099L912.5 576.099V528.966ZM864.5 528.966H911.5V576.099H864.5V528.966ZM816.5 528.966H863.5V576.099L816.5 576.099V528.966ZM768.501 528.966H815.5V576.099H768.501V528.966ZM720.501 528.966H767.501V576.099L720.501 576.099V528.966ZM672.501 528.966H719.501V576.099L672.501 576.099V528.966ZM624.501 528.966H671.501V576.099H624.501V528.966ZM576.501 528.966H623.501V576.099L576.501 576.099V528.966ZM528.501 528.966H575.501V576.099H528.501V528.966ZM480.501 528.966H527.501V576.099L480.501 576.099V528.966ZM432.502 528.966H479.501V576.099L432.502 576.099V528.966ZM384.501 528.966H431.502V576.099H384.501V528.966ZM336.5 528.966H383.501V576.099L336.5 576.099L336.5 528.966ZM288.5 528.966H335.5L335.5 576.099H288.5V528.966ZM240.501 528.966H287.5V576.099L240.501 576.099V528.966ZM192.5 528.966H239.501V576.099L192.5 576.099L192.5 528.966ZM144.5 528.966H191.5L191.5 576.099H144.5V528.966ZM96.4995 528.966H143.5V576.099L96.4995 576.099V528.966ZM48.4998 528.966H95.4995V576.099H48.4998L48.4998 528.966ZM0.500027 528.966H47.4998L47.4998 576.099L0.500021 576.098L0.500027 528.966ZM1439.5 528.966H1392.5V576.099L1439.5 576.1V528.966ZM1391.5 577.099H1344.5V624.232H1391.5V577.099ZM1343.5 577.099L1296.5 577.099V624.232H1343.5V577.099ZM1295.5 577.099H1248.5V624.232H1295.5V577.099ZM1247.5 577.099L1200.5 577.099V624.232H1247.5V577.099ZM1199.5 577.099L1152.5 577.099V624.232H1199.5V577.099ZM1151.5 577.099H1104.5V624.232H1151.5V577.099ZM1103.5 577.099L1056.5 577.099V624.232H1103.5V577.099ZM1055.5 577.099H1008.5V624.232H1055.5V577.099ZM1007.5 577.099L960.501 577.099V624.232H1007.5V577.099ZM959.501 577.099L912.5 577.099V624.232H959.501V577.099ZM911.5 577.099H864.5V624.232H911.5V577.099ZM863.5 577.099L816.5 577.099V624.232H863.5V577.099ZM815.5 577.099H768.501V624.232H815.5V577.099ZM767.501 577.099L720.501 577.099V624.232H767.501V577.099ZM719.501 577.099L672.501 577.099V624.232H719.501V577.099ZM671.501 577.099H624.501V624.232H671.501V577.099ZM623.501 577.099L576.501 577.099V624.232H623.501V577.099ZM575.501 577.099H528.501V624.232H575.501V577.099ZM527.501 577.099L480.501 577.099V624.232H527.501V577.099ZM479.501 577.099L432.502 577.099V624.232H479.501V577.099ZM431.502 577.099H384.501V624.232H431.502V577.099ZM383.501 577.099L336.5 577.099L336.5 624.232H383.501V577.099ZM335.5 577.099H288.5V624.232H335.5L335.5 577.099ZM287.5 577.099L240.501 577.099V624.232H287.5V577.099ZM239.501 577.099L192.5 577.099L192.5 624.232H239.501V577.099ZM191.5 577.099H144.5V624.232H191.5L191.5 577.099ZM143.5 577.099L96.4995 577.099V624.232H143.5V577.099ZM95.4995 577.099H48.4998L48.4998 624.232H95.4995V577.099ZM47.4998 577.099L0.50002 577.098L0.500014 624.232H47.4998L47.4998 577.099ZM1439.5 577.1L1392.5 577.099V624.232H1439.5V577.1ZM1344.5 625.232H1391.5V672.365H1344.5V625.232ZM1296.5 625.232H1343.5V672.365H1296.5V625.232ZM1248.5 625.232H1295.5V672.365H1248.5V625.232ZM1200.5 625.232H1247.5V672.365H1200.5V625.232ZM1152.5 625.232H1199.5V672.365H1152.5V625.232ZM1104.5 625.232H1151.5V672.365H1104.5V625.232ZM1056.5 625.232H1103.5V672.365H1056.5V625.232ZM1008.5 625.232H1055.5V672.365H1008.5V625.232ZM960.501 625.232H1007.5V672.365H960.501V625.232ZM912.5 625.232H959.501V672.365H912.5V625.232ZM864.5 625.232H911.5V672.365H864.5V625.232ZM816.5 625.232H863.5V672.365H816.5V625.232ZM768.501 625.232H815.5V672.365H768.501V625.232ZM720.501 625.232H767.501V672.365H720.501V625.232ZM672.501 625.232H719.501V672.365H672.501V625.232ZM624.501 625.232H671.501V672.365H624.501V625.232ZM576.501 625.232H623.501V672.365H576.501V625.232ZM528.501 625.232H575.501V672.365H528.501V625.232ZM480.501 625.232H527.501V672.365H480.501V625.232ZM432.502 625.232H479.501V672.365H432.502V625.232ZM384.501 625.232H431.502V672.365H384.501V625.232ZM336.5 625.232H383.501V672.365H336.5L336.5 625.232ZM288.5 625.232H335.5L335.5 672.365H288.5V625.232ZM240.501 625.232H287.5V672.365H240.501V625.232ZM192.5 625.232H239.501V672.365H192.5L192.5 625.232ZM144.5 625.232H191.5L191.5 672.365H144.5V625.232ZM96.4995 625.232H143.5V672.365H96.4995V625.232ZM48.4998 625.232H95.4995V672.365H48.4997L48.4998 625.232ZM0.500013 625.232H47.4998L47.4997 672.365H0.500007L0.500013 625.232ZM1439.5 625.232H1392.5V672.365H1439.5V625.232ZM1391.5 673.365H1344.5V720.499H1391.5V673.365ZM1343.5 673.365H1296.5V720.499L1343.5 720.499V673.365ZM1295.5 673.365H1248.5V720.499H1295.5V673.365ZM1247.5 673.365H1200.5V720.499L1247.5 720.499V673.365ZM1199.5 673.365H1152.5V720.499H1199.5V673.365ZM1151.5 673.365H1104.5V720.499L1151.5 720.499V673.365ZM1103.5 673.365H1056.5V720.499L1103.5 720.499V673.365ZM1055.5 673.365H1008.5V720.499H1055.5V673.365ZM1007.5 673.365H960.501V720.499L1007.5 720.499V673.365ZM959.501 673.365H912.5V720.499H959.501V673.365ZM911.5 673.365H864.5V720.499L911.5 720.499V673.365ZM863.5 673.365H816.5V720.499H863.5V673.365ZM815.5 673.365H768.501V720.499L815.5 720.499V673.365ZM767.501 673.365H720.501V720.499H767.501V673.365ZM719.501 673.365H672.501V720.499H719.501V673.365ZM671.501 673.365H624.501V720.499L671.501 720.499V673.365ZM623.501 673.365H576.501V720.499H623.501V673.365ZM575.501 673.365H528.501V720.499L575.501 720.499V673.365ZM527.501 673.365H480.501V720.499H527.501V673.365ZM479.501 673.365H432.502V720.498L479.501 720.499V673.365ZM431.502 673.365H384.501V720.498H431.502V673.365ZM383.501 673.365H336.5L336.5 720.498L383.501 720.498V673.365ZM335.5 673.365H288.5V720.498L335.5 720.498L335.5 673.365ZM287.5 673.365H240.501V720.498H287.5V673.365ZM239.501 673.365H192.5L192.5 720.498L239.501 720.498V673.365ZM191.5 673.365H144.5V720.498H191.5L191.5 673.365ZM143.5 673.365H96.4995V720.498L143.5 720.498V673.365ZM95.4995 673.365H48.4997L48.4997 720.498H95.4995V673.365ZM47.4997 673.365H0.500007L0.5 720.498L47.4997 720.498L47.4997 673.365ZM1439.5 673.365H1392.5V720.499L1439.5 720.499V673.365Z" fill="url(#paint0_radial_1568_35018)" fill-opacity="0.08"/>
</g>
</g>
<defs>
<radialGradient id="paint0_radial_1568_35018" cx="0" cy="0" r="1" gradientUnits="userSpaceOnUse" gradientTransform="translate(720 -1.99998) rotate(90) scale(578.5 873.079)">
<stop stop-color="white"/>
<stop offset="0.948482" stop-color="white" stop-opacity="0"/>
</radialGradient>
<clipPath id="clip0_1568_35018">
<rect width="1440" height="600" fill="white"/>
</clipPath>
</defs>
</svg>
