<svg xmlns="http://www.w3.org/2000/svg" viewBox="0 0 3000 3000"><path fill="#FFF" d="M0 0h3000v3000H0z"/><path fill="#D0D3D4" d="M681.67 1916.35a9.08 9.08 0 0 1 9.08 9.08 9.073 9.073 0 0 1-9.08 9.08 9.08 9.08 0 1 1 0-18.16zM737.28 1916.35a9.08 9.08 0 0 1 9.08 9.08 9.073 9.073 0 0 1-9.08 9.08 9.079 9.079 0 1 1 0-18.16zM792.89 1916.35c5.011 0 9.08 4.07 9.08 9.08a9.078 9.078 0 0 1-9.08 9.08 9.072 9.072 0 0 1-9.079-9.08c0-5.01 4.059-9.08 9.079-9.08zM848.5 1916.35c5.01 0 9.07 4.07 9.07 9.08 0 5.021-4.061 9.08-9.07 9.08-5.02 0-9.08-4.06-9.08-9.08a9.08 9.08 0 0 1 9.08-9.08zM904.1 1916.35c5.021 0 9.08 4.07 9.08 9.08 0 5.021-4.06 9.08-9.08 9.08a9.08 9.08 0 1 1 0-18.16zM959.71 1916.35a9.079 9.079 0 1 1 0 18.16 9.08 9.08 0 1 1 0-18.16zM681.67 1970.24c5.02 0 9.08 4.069 9.08 9.08a9.073 9.073 0 0 1-9.08 9.079c-5.01 0-9.08-4.06-9.08-9.079 0-5.01 4.07-9.08 9.08-9.08zM681.67 2024.14c5.02 0 9.08 4.061 9.08 9.08 0 5.01-4.061 9.08-9.08 9.08a9.08 9.08 0 1 1 0-18.16zM681.67 2078.03c5.02 0 9.08 4.07 9.08 9.08s-4.061 9.08-9.08 9.08c-5.01 0-9.08-4.07-9.08-9.08s4.07-9.08 9.08-9.08zM737.28 1970.24c5.02 0 9.08 4.069 9.08 9.08a9.073 9.073 0 0 1-9.08 9.079c-5.011 0-9.08-4.06-9.08-9.079 0-5.01 4.07-9.08 9.08-9.08zM737.28 2024.14c5.02 0 9.08 4.061 9.08 9.08 0 5.01-4.061 9.08-9.08 9.08a9.08 9.08 0 1 1 0-18.16zM737.28 2078.03c5.02 0 9.08 4.07 9.08 9.08s-4.061 9.08-9.08 9.08c-5.011 0-9.08-4.07-9.08-9.08s4.07-9.08 9.08-9.08zM792.89 1970.24c5.011 0 9.08 4.069 9.08 9.08a9.078 9.078 0 0 1-9.08 9.079 9.072 9.072 0 0 1-9.079-9.079c0-5.01 4.059-9.08 9.079-9.08zM792.89 2024.14a9.08 9.08 0 1 1 0 18.16c-5.02 0-9.079-4.07-9.079-9.08 0-5.02 4.059-9.08 9.079-9.08zM792.89 2078.03c5.011 0 9.08 4.07 9.08 9.08s-4.069 9.08-9.08 9.08c-5.02 0-9.079-4.07-9.079-9.08s4.059-9.08 9.079-9.08zM848.5 1970.24c5.01 0 9.07 4.069 9.07 9.08 0 5.02-4.061 9.079-9.07 9.079-5.02 0-9.08-4.06-9.08-9.079a9.08 9.08 0 0 1 9.08-9.08zM848.5 2024.14c5.01 0 9.07 4.061 9.07 9.08 0 5.01-4.061 9.08-9.07 9.08a9.08 9.08 0 0 1-9.08-9.08c0-5.02 4.06-9.08 9.08-9.08zM848.5 2078.03c5.01 0 9.07 4.07 9.07 9.08s-4.061 9.08-9.07 9.08c-5.02 0-9.08-4.07-9.08-9.08s4.06-9.08 9.08-9.08zM904.1 1970.24a9.078 9.078 0 0 1 9.08 9.08c0 5.02-4.06 9.079-9.08 9.079-5.01 0-9.08-4.06-9.08-9.079 0-5.01 4.07-9.08 9.08-9.08zM904.1 2024.14a9.073 9.073 0 0 1 9.08 9.08 9.08 9.08 0 1 1-18.16 0 9.08 9.08 0 0 1 9.08-9.08zM904.1 2078.03c5.021 0 9.08 4.07 9.08 9.08a9.08 9.08 0 1 1-9.08-9.08zM959.71 1970.24c5.01 0 9.08 4.069 9.08 9.08 0 5.02-4.07 9.079-9.08 9.079s-9.08-4.06-9.08-9.079c0-5.01 4.07-9.08 9.08-9.08zM959.71 2024.14c5.01 0 9.08 4.061 9.08 9.08 0 5.01-4.07 9.08-9.08 9.08s-9.08-4.07-9.08-9.08a9.08 9.08 0 0 1 9.08-9.08zM959.71 2078.03c5.01 0 9.08 4.07 9.08 9.08s-4.07 9.08-9.08 9.08-9.08-4.07-9.08-9.08 4.07-9.08 9.08-9.08zM2230.24 531.72a9.08 9.08 0 0 1 9.08 9.08 9.073 9.073 0 0 1-9.08 9.08 9.08 9.08 0 1 1 0-18.16zM2285.85 531.72c5.011 0 9.08 4.07 9.08 9.08a9.078 9.078 0 0 1-9.08 9.08c-5.02 0-9.08-4.06-9.08-9.08a9.08 9.08 0 0 1 9.08-9.08zM2341.46 531.72c5.01 0 9.07 4.07 9.07 9.08 0 5.021-4.061 9.08-9.07 9.08a9.073 9.073 0 0 1-9.08-9.08c0-5.01 4.059-9.08 9.08-9.08zM2397.061 531.72a9.08 9.08 0 0 1 9.08 9.08 9.073 9.073 0 0 1-9.08 9.08 9.079 9.079 0 0 1-9.08-9.08c-.001-5.01 4.069-9.08 9.08-9.08zM2452.67 531.72a9.079 9.079 0 1 1 0 18.16 9.08 9.08 0 1 1 0-18.16zM2508.28 531.72a9.079 9.079 0 1 1 0 18.16 9.073 9.073 0 0 1-9.08-9.08 9.08 9.08 0 0 1 9.08-9.08zM2230.24 585.62c5.02 0 9.08 4.06 9.08 9.08 0 5.01-4.061 9.08-9.08 9.08a9.08 9.08 0 1 1 0-18.16zM2230.24 639.51c5.02 0 9.08 4.061 9.08 9.08 0 5.01-4.061 9.08-9.08 9.08a9.08 9.08 0 1 1 0-18.16zM2230.24 693.4c5.02 0 9.08 4.069 9.08 9.08a9.073 9.073 0 0 1-9.08 9.079c-5.01 0-9.08-4.06-9.08-9.079 0-5.01 4.07-9.08 9.08-9.08zM2285.85 585.62c5.011 0 9.08 4.06 9.08 9.08a9.08 9.08 0 1 1-18.16 0c0-5.02 4.06-9.08 9.08-9.08zM2285.85 639.51a9.08 9.08 0 1 1 0 18.16 9.08 9.08 0 0 1-9.08-9.08c0-5.02 4.06-9.08 9.08-9.08zM2285.85 693.4c5.011 0 9.08 4.069 9.08 9.08a9.078 9.078 0 0 1-9.08 9.079c-5.02 0-9.08-4.06-9.08-9.079a9.08 9.08 0 0 1 9.08-9.08zM2341.46 585.62c5.01 0 9.07 4.06 9.07 9.08 0 5.01-4.061 9.08-9.07 9.08a9.079 9.079 0 0 1-9.08-9.08c0-5.02 4.059-9.08 9.08-9.08zM2341.46 639.51c5.01 0 9.07 4.061 9.07 9.08 0 5.01-4.061 9.08-9.07 9.08a9.079 9.079 0 0 1-9.08-9.08c0-5.02 4.059-9.08 9.08-9.08zM2341.46 693.4c5.01 0 9.07 4.069 9.07 9.08 0 5.02-4.061 9.079-9.07 9.079a9.072 9.072 0 0 1-9.08-9.079c0-5.01 4.059-9.08 9.08-9.08zM2397.061 585.62c5.02 0 9.08 4.06 9.08 9.08 0 5.01-4.061 9.08-9.08 9.08-5.011 0-9.08-4.07-9.08-9.08-.001-5.02 4.069-9.08 9.08-9.08zM2397.061 639.51c5.02 0 9.08 4.061 9.08 9.08 0 5.01-4.061 9.08-9.08 9.08-5.011 0-9.08-4.07-9.08-9.08-.001-5.02 4.069-9.08 9.08-9.08zM2397.061 693.4c5.02 0 9.08 4.069 9.08 9.08a9.073 9.073 0 0 1-9.08 9.079c-5.011 0-9.08-4.06-9.08-9.079-.001-5.01 4.069-9.08 9.08-9.08zM2452.67 585.62a9.08 9.08 0 1 1-9.08 9.08 9.08 9.08 0 0 1 9.08-9.08zM2452.67 639.51c5.01 0 9.08 4.061 9.08 9.08 0 5.01-4.07 9.08-9.08 9.08s-9.08-4.07-9.08-9.08a9.08 9.08 0 0 1 9.08-9.08zM2452.67 693.4c5.01 0 9.08 4.069 9.08 9.08 0 5.02-4.07 9.079-9.08 9.079s-9.08-4.06-9.08-9.079c0-5.01 4.07-9.08 9.08-9.08zM2508.28 585.62a9.08 9.08 0 1 1 0 18.16 9.079 9.079 0 0 1-9.08-9.08c0-5.02 4.06-9.08 9.08-9.08zM2508.28 639.51c5.01 0 9.08 4.061 9.08 9.08a9.079 9.079 0 1 1-18.16 0c0-5.02 4.06-9.08 9.08-9.08zM2508.28 693.4c5.01 0 9.08 4.069 9.08 9.08 0 5.02-4.07 9.079-9.08 9.079a9.072 9.072 0 0 1-9.08-9.079 9.08 9.08 0 0 1 9.08-9.08z"/><path fill="#7DA3FB" d="M956.439 610.12a181.98 181.98 0 0 1 46.681-5.58l12.45-44.41 91.819 25.74-12.449 44.41-50.421 64.16c-28.85-13.36-63.5-13.15-93.34 3.63-49.31 27.72-66.819 90.18-39.09 139.5 2.74 4.89 5.83 9.449 9.21 13.689l-50.43 64.181-40.18 22.59-46.721-83.12 40.171-22.58a181.623 181.623 0 0 1-5.591-46.69L774.16 773.2l25.729-91.82 44.4 12.45a181.965 181.965 0 0 1 29.03-36.99l-22.58-40.17 83.12-46.729 22.58 40.179zm175.481 49.18 40.17-22.58 46.73 83.11-40.17 22.58a182.54 182.54 0 0 1 5.59 46.689l44.38 12.45-25.73 91.811-44.409-12.44a181.768 181.768 0 0 1-29.021 36.97l22.59 40.181-83.12 46.72-22.58-40.17a182.02 182.02 0 0 1-46.68 5.58l-12.45 44.4-91.81-25.73 12.439-44.4 50.42-64.17c28.851 13.37 63.49 13.141 93.32-3.63 49.33-27.72 66.83-90.189 39.11-139.5-2.75-4.88-5.83-9.45-9.21-13.689l50.431-64.182z"/><path fill="#4358A3" d="M981.16 1018.325c-.188 0-.378-.025-.563-.077l-96.34-27a2.083 2.083 0 0 1-1.445-2.571l12.63-45.057a192.766 192.766 0 0 1-36.728-28.823l-40.773 22.911a2.085 2.085 0 0 1-2.839-.796l-49.02-87.21a2.085 2.085 0 0 1 .796-2.838l40.762-22.91a192.74 192.74 0 0 1-5.556-46.364l-45.037-12.62a2.083 2.083 0 0 1-1.445-2.57l27-96.34a2.083 2.083 0 0 1 2.57-1.445l45.048 12.63a193.509 193.509 0 0 1 28.832-36.737l-22.921-40.764a2.085 2.085 0 0 1 .796-2.839l87.22-49.029a2.086 2.086 0 0 1 2.839.796l22.911 40.772a192.885 192.885 0 0 1 45.933-5.536h.43l12.621-45.057a2.086 2.086 0 0 1 2.57-1.445l96.341 27a2.083 2.083 0 0 1 1.445 2.571l-12.631 45.057a193.067 193.067 0 0 1 36.728 28.823l40.764-22.911a2.086 2.086 0 0 1 2.839.795l49.03 87.21a2.085 2.085 0 0 1-.796 2.839l-40.763 22.911a192.716 192.716 0 0 1 5.546 46.363l45.038 12.631a2.086 2.086 0 0 1 1.445 2.57l-27 96.33a2.083 2.083 0 0 1-2.57 1.445l-45.057-12.631a192.676 192.676 0 0 1-28.823 36.729l22.92 40.763a2.085 2.085 0 0 1-.796 2.839l-87.21 49.021a2.086 2.086 0 0 1-2.839-.795l-22.92-40.764a191.97 191.97 0 0 1-46.354 5.547l-12.621 45.057a2.086 2.086 0 0 1-.986 1.255 2.108 2.108 0 0 1-1.021.264zm-93.769-30.53 92.324 25.875 12.487-44.582c.254-.908 1.093-1.511 2.029-1.522a188.622 188.622 0 0 0 48.434-5.796 2.084 2.084 0 0 1 2.332.999l22.678 40.333 83.575-46.978-22.678-40.332a2.085 2.085 0 0 1 .358-2.511 188.57 188.57 0 0 0 30.117-38.376 2.084 2.084 0 0 1 2.355-.943l44.582 12.498 25.875-92.315-44.562-12.498a2.084 2.084 0 0 1-1.522-2.029 188.566 188.566 0 0 0-5.796-48.443 2.086 2.086 0 0 1 .999-2.332l40.333-22.669-46.987-83.575-40.333 22.669c-.82.462-1.85.316-2.51-.357a188.85 188.85 0 0 0-38.376-30.118 2.085 2.085 0 0 1-.943-2.355l12.498-44.582-92.325-25.875-12.487 44.582c-.254.908-1.095 1.511-2.029 1.522-16.364-.167-32.685 1.777-48.444 5.785a2.084 2.084 0 0 1-2.332-.999l-22.668-40.341-83.584 46.986 22.678 40.333a2.087 2.087 0 0 1-.357 2.511 189.27 189.27 0 0 0-30.128 38.387 2.084 2.084 0 0 1-2.355.942l-44.572-12.497-25.875 92.325 44.562 12.487a2.084 2.084 0 0 1 1.522 2.029 188.546 188.546 0 0 0 5.806 48.445 2.086 2.086 0 0 1-.999 2.332l-40.332 22.668 46.976 83.575 40.343-22.668a2.087 2.087 0 0 1 2.511.359 188.622 188.622 0 0 0 38.375 30.117 2.085 2.085 0 0 1 .943 2.355l-12.498 44.579zm108.733-100.381c-39.598 0-76.237-21.417-95.621-55.892-29.608-52.672-10.846-119.612 41.825-149.219 16.378-9.208 34.909-14.076 53.589-14.076 39.598 0 76.237 21.42 95.62 55.902 29.609 52.662 10.851 119.597-41.815 149.209-16.382 9.209-34.916 14.076-53.598 14.076zm-.207-215.017c-17.966 0-35.79 4.682-51.546 13.541-24.543 13.796-42.245 36.326-49.844 63.438-7.599 27.112-4.187 55.56 9.61 80.104 18.646 33.164 53.893 53.766 91.986 53.766 17.968 0 35.795-4.683 51.555-13.541 50.661-28.485 68.706-92.873 40.224-143.531-18.645-33.172-53.892-53.777-91.985-53.777z"/><path fill="#7DA3FB" d="M1328.87 674.185h-28.86a2.086 2.086 0 0 1-2.085-2.085v-10.248a49.16 49.16 0 0 1-4.952-2.046l-7.25 7.24a2.084 2.084 0 0 1-2.947 0l-20.41-20.4a2.085 2.085 0 0 1 0-2.95l7.25-7.249a49.995 49.995 0 0 1-2.055-4.951h-10.25a2.086 2.086 0 0 1-2.085-2.085v-28.87c0-1.151.934-2.085 2.085-2.085h10.25a49.953 49.953 0 0 1 2.055-4.952l-7.25-7.249a2.087 2.087 0 0 1 0-2.95l20.41-20.4a2.086 2.086 0 0 1 2.948 0l7.246 7.246a48.293 48.293 0 0 1 4.955-2.053V557.85c0-1.151.934-2.085 2.085-2.085h28.86c1.151 0 2.085.934 2.085 2.085v10.249c1.7.597 3.358 1.284 4.955 2.054l7.245-7.246a2.085 2.085 0 0 1 2.949 0l20.41 20.4a2.085 2.085 0 0 1 0 2.949l-7.249 7.25a50.278 50.278 0 0 1 2.055 4.951h10.25c1.151 0 2.085.934 2.085 2.085v28.87a2.086 2.086 0 0 1-2.085 2.085h-10.25a50.237 50.237 0 0 1-2.055 4.951l7.249 7.25a2.085 2.085 0 0 1 0 2.949l-20.41 20.4a2.086 2.086 0 0 1-2.948 0l-7.248-7.24a49.138 49.138 0 0 1-4.953 2.046V672.1a2.086 2.086 0 0 1-2.085 2.085zm-26.775-4.17h24.69v-9.665c0-.909.589-1.714 1.456-1.988a44.98 44.98 0 0 0 7.119-2.942 2.085 2.085 0 0 1 2.434.375l6.835 6.828 17.461-17.454-6.834-6.835a2.084 2.084 0 0 1-.378-2.431 45.975 45.975 0 0 0 2.956-7.125 2.085 2.085 0 0 1 1.987-1.453h9.665v-24.7h-9.665a2.085 2.085 0 0 1-1.987-1.453 45.83 45.83 0 0 0-2.956-7.125 2.083 2.083 0 0 1 .378-2.431l6.834-6.835-17.46-17.453-6.835 6.836a2.086 2.086 0 0 1-2.441.373 44.138 44.138 0 0 0-7.113-2.95 2.085 2.085 0 0 1-1.456-1.988v-9.665h-24.69v9.665c0 .909-.589 1.713-1.456 1.988a44.052 44.052 0 0 0-7.112 2.95 2.084 2.084 0 0 1-2.441-.373l-6.837-6.836-17.46 17.453 6.835 6.834c.642.642.795 1.626.378 2.432a45.717 45.717 0 0 0-2.955 7.124 2.085 2.085 0 0 1-1.987 1.454h-9.665v24.7h9.665c.908 0 1.712.588 1.987 1.454a45.764 45.764 0 0 0 2.955 7.124c.417.807.264 1.79-.378 2.432l-6.835 6.834 17.461 17.454 6.837-6.828a2.086 2.086 0 0 1 2.434-.375 44.853 44.853 0 0 0 7.118 2.942 2.085 2.085 0 0 1 1.456 1.988v9.665z"/><path fill="#7DA3FB" d="M1314.439 643.545c-15.75 0-28.564-12.819-28.564-28.575 0-15.75 12.814-28.564 28.564-28.564 15.751 0 28.565 12.814 28.565 28.564.001 15.756-12.814 28.575-28.565 28.575zm0-52.97c-13.451 0-24.395 10.943-24.395 24.395 0 13.457 10.943 24.405 24.395 24.405s24.396-10.948 24.396-24.405c0-13.451-10.944-24.395-24.396-24.395z"/><path fill="#F72E70" d="M2550.27 2344.755h-39.659a2.086 2.086 0 0 1-2.085-2.085v-14.634a67.485 67.485 0 0 1-7.747-3.216l-10.354 10.354a2.086 2.086 0 0 1-2.949 0l-28.04-28.04a2.088 2.088 0 0 1 0-2.949l10.354-10.354a67.634 67.634 0 0 1-3.216-7.747h-14.634a2.086 2.086 0 0 1-2.085-2.085v-39.66c0-1.151.934-2.085 2.085-2.085h14.634a67.523 67.523 0 0 1 3.215-7.745l-10.353-10.345a2.08 2.08 0 0 1-.611-1.475c0-.553.22-1.083.61-1.475l28.05-28.051a2.085 2.085 0 0 1 2.95.001l10.345 10.354a67.56 67.56 0 0 1 7.746-3.206v-14.633c0-1.151.934-2.085 2.085-2.085h39.659c1.151 0 2.085.934 2.085 2.085v14.634a67.726 67.726 0 0 1 7.745 3.206l10.346-10.354c.779-.783 2.164-.783 2.949-.001l28.05 28.051a2.088 2.088 0 0 1-.001 2.95l-10.354 10.346a67.823 67.823 0 0 1 3.207 7.744h14.644c1.151 0 2.085.934 2.085 2.085V2284a2.086 2.086 0 0 1-2.085 2.085h-14.643a67.73 67.73 0 0 1-3.207 7.747l10.354 10.354a2.088 2.088 0 0 1-.001 2.95l-28.05 28.04c-.391.391-.921.61-1.474.61h-.001c-.553 0-1.083-.22-1.474-.611l-10.346-10.354a68.292 68.292 0 0 1-7.745 3.216v14.634c0 1.15-.933 2.084-2.084 2.084zm-37.575-4.17h35.489v-14.055c0-.908.588-1.712 1.453-1.987a63.706 63.706 0 0 0 9.915-4.115 2.084 2.084 0 0 1 2.432.379l9.937 9.944 25.1-25.091-9.945-9.945a2.085 2.085 0 0 1-.376-2.435 63.363 63.363 0 0 0 4.104-9.913 2.084 2.084 0 0 1 1.986-1.452h14.064v-35.49h-14.064a2.084 2.084 0 0 1-1.986-1.452 63.799 63.799 0 0 0-4.106-9.914 2.085 2.085 0 0 1 .379-2.433l9.944-9.937-25.1-25.101-9.937 9.944a2.084 2.084 0 0 1-2.432.379 63.75 63.75 0 0 0-9.915-4.104 2.085 2.085 0 0 1-1.453-1.987v-14.055h-35.489v14.055c0 .908-.588 1.712-1.452 1.986a63.527 63.527 0 0 0-9.914 4.104 2.087 2.087 0 0 1-2.434-.378l-9.937-9.944-25.1 25.101 9.944 9.937c.643.643.796 1.627.378 2.434a63.477 63.477 0 0 0-4.115 9.913 2.084 2.084 0 0 1-1.986 1.452h-14.055v35.49h14.055c.908 0 1.712.588 1.986 1.452a63.431 63.431 0 0 0 4.115 9.914 2.085 2.085 0 0 1-.377 2.434l-9.946 9.945 25.092 25.092 9.945-9.946a2.083 2.083 0 0 1 2.434-.377 63.504 63.504 0 0 0 9.914 4.115 2.084 2.084 0 0 1 1.452 1.986v14.055z"/><path fill="#F72E70" d="M2530.439 2302.645c-21.215 0-38.475-17.26-38.475-38.475s17.26-38.475 38.475-38.475c21.216 0 38.476 17.26 38.476 38.475s-17.26 38.475-38.476 38.475zm0-72.78c-18.916 0-34.305 15.389-34.305 34.305s15.389 34.305 34.305 34.305 34.306-15.389 34.306-34.305-15.39-34.305-34.306-34.305z"/><path fill="#353640" d="M2413.03 2173.405h-610.61c-47.6 0-86.325-38.729-86.325-86.335V783.26c0-47.599 38.726-86.324 86.325-86.324h610.61c47.6 0 86.324 38.725 86.324 86.324v1303.81c0 47.606-38.724 86.335-86.324 86.335zm-610.61-1472.3c-45.301 0-82.155 36.854-82.155 82.154V2087.07c0 45.306 36.854 82.165 82.155 82.165h610.61c45.3 0 82.154-36.859 82.154-82.165V783.26c0-45.3-36.854-82.154-82.154-82.154h-610.61z"/><path fill="#E1ECF2" d="M1767.24 670.64h610.609c46.33 0 84.24 37.91 84.24 84.25V2058.7c0 46.34-37.91 84.24-84.24 84.24H1767.24c-46.33 0-84.24-37.9-84.24-84.24V754.89c0-46.34 37.91-84.25 84.24-84.25z"/><path fill="#949899" d="M2377.85 2145.025h-610.61c-47.6 0-86.325-38.726-86.325-86.325V754.89c0-47.605 38.726-86.335 86.325-86.335h610.609c47.6 0 86.325 38.73 86.325 86.335V2058.7c.001 47.6-38.725 86.325-86.324 86.325zm-610.61-1472.3c-45.301 0-82.155 36.859-82.155 82.165V2058.7c0 45.301 36.854 82.155 82.155 82.155h610.609c45.301 0 82.155-36.854 82.155-82.155V754.89c0-45.306-36.854-82.165-82.155-82.165H1767.24z"/><path fill="#353640" d="M2181.2 711.875h-217.32a2.086 2.086 0 0 1 0-4.17h217.32a2.086 2.086 0 0 1 0 4.17z"/><path fill="#FFAF18" d="M2367.96 1305.66v145.86h-590.83V1297.8c61.63 8.03 80.37 62.92 128.74 62.92 52.189 0 68.11-176.33 169.83-176.33s85.8 136.091 143.3 136.091c57.49 0 49.53-59.171 102.6-59.171 15.02 0 30.31 18.23 46.36 44.35z"/><path fill="#949899" d="M1738.189 781.2h96.181v11.95h-96.181zM1929.03 781.2h96.18v11.95h-96.18zM2119.88 781.2h96.17v11.95h-96.17zM2310.72 781.2h96.17v11.95h-96.17z"/><path fill="#FFF" d="M1777.13 1521.15h590.83v16.65h-590.83zM1777.13 1569.64h590.83v16.65h-590.83zM1777.13 1618.14h590.83v16.65h-590.83zM1777.13 1666.63h590.83v16.65h-590.83zM1777.13 1715.13h388.57v16.641h-388.57zM1777.13 1763.62h295.41v16.651h-295.41zM1910.09 908.271c30.141 1.829 57.27 14.8 77.32 34.85 20.02 20.03 32.99 47.109 34.84 77.2h-32.02c-1.791-21.271-11.16-40.38-25.4-54.62-14.271-14.26-33.42-23.641-54.74-25.41v-32.02zm-14.97 32.039c-21.22 1.811-40.29 11.181-54.5 25.391-15.89 15.899-25.72 37.859-25.72 62.109 0 18.841 5.93 36.301 16.029 50.601l-24.51 20.61c-14.74-19.91-23.46-44.541-23.46-71.211 0-33.069 13.4-63.01 35.08-84.689 20-20 47.04-32.96 77.08-34.84v32.029h.001zm-54.55 149.56.05.04c15.89 15.899 37.85 25.729 62.1 25.729 24.261 0 46.21-9.83 62.11-25.729 14.24-14.24 23.609-33.351 25.4-54.62h32.02c-1.85 30.09-14.82 57.18-34.84 77.2-21.68 21.68-51.62 35.08-84.69 35.08-33.069 0-63.01-13.4-84.68-35.08-.67-.66-1.33-1.34-1.979-2.021l24.509-20.599zM2066.71 946.86h276.08v16.65h-276.08zM2066.71 995.35h295.42V1012h-295.42zM2066.71 1043.84h221.49v16.65h-221.49zM2066.71 1092.34h168.39v16.65h-168.39z"/><path fill="#949899" d="M2102 1848.564h-8.33a2.086 2.086 0 0 1 0-4.17h8.33a2.086 2.086 0 0 1 0 4.17zm-20.83 0h-8.33a2.086 2.086 0 0 1 0-4.17h8.33a2.086 2.086 0 0 1 0 4.17zm-20.83 0h-8.33a2.086 2.086 0 0 1 0-4.17h8.33a2.086 2.086 0 0 1 0 4.17zm-20.83 0h-8.33a2.086 2.086 0 0 1 0-4.17h8.33a2.086 2.086 0 0 1 0 4.17zm-20.83 0h-8.33a2.086 2.086 0 0 1 0-4.17h8.33a2.086 2.086 0 0 1 0 4.17zm-20.83 0h-8.33a2.086 2.086 0 0 1 0-4.17h8.33a2.086 2.086 0 0 1 0 4.17zm-20.83 0h-8.329a2.086 2.086 0 0 1 0-4.17h8.329a2.086 2.086 0 0 1 0 4.17zm-20.83 0h-8.33a2.086 2.086 0 0 1 0-4.17h8.33a2.086 2.086 0 0 1 0 4.17zm-20.83 0h-8.33a2.086 2.086 0 0 1 0-4.17h8.33a2.086 2.086 0 0 1 0 4.17zm-20.83 0h-8.33a2.086 2.086 0 0 1 0-4.17h8.33a2.086 2.086 0 0 1 0 4.17zm-20.83 0h-8.33a2.086 2.086 0 0 1 0-4.17h8.33a2.086 2.086 0 0 1 0 4.17zm-20.83 0h-.11a2.086 2.086 0 0 1 0-4.17h.11a2.086 2.086 0 0 1 0 4.17z"/><path fill="#F72E70" d="M1051.96 705.36h539.02v65.22h-539.02z"/><path fill="#949899" d="M1051.96 1041.05h539.02V770.58h-539.02z"/><path fill="#FFF" d="M1084.1 820.11h81.64v10.23h-81.64zM1195.46 820.11h53.59v10.23h-53.59z"/><path fill="#FC0" d="M1369.2 820.11h151.96v10.23H1369.2z"/><path fill="#9FE6D1" d="M1536.65 820.11h22.19v10.23h-22.19zM1264.95 820.11h75.361v10.23h-75.361zM1195.46 860.41h26.79v10.22h-26.79z"/><path fill="#FFF" d="M1369.2 860.41h49.4v10.22h-49.4z"/><path fill="#9FE6D1" d="M1438.28 860.41h120.56v10.22h-120.56z"/><path fill="#FC0" d="M1235.22 860.41h105.94v10.22h-105.94z"/><path fill="#FFF" d="M1195.46 900.7h78.69v10.23h-78.69z"/><path fill="#FC0" d="M1349.52 900.7h161.6v10.23h-161.6z"/><path fill="#FFF" d="M1536.65 900.7h22.19v10.23h-22.19z"/><path fill="#9FE6D1" d="M1290.04 900.7h34.35v10.23h-34.35z"/><path fill="#FFF" d="M1084.1 940.99h81.64v10.23h-81.64z"/><path fill="#9FE6D1" d="M1195.46 940.99h92.11v10.23h-92.11z"/><path fill="#FC0" d="M1405.21 940.99h115.95v10.23h-115.95z"/><path fill="#9FE6D1" d="M1536.65 940.99h22.19v10.23h-22.19z"/><path fill="#FC0" d="M1310.6 940.99h67.82v10.23h-67.82z"/><path fill="#FFF" d="M1195.46 981.28h53.59v10.23h-53.59z"/><path fill="#FC0" d="M1369.2 981.28h75.98v10.23h-75.98z"/><path fill="#9FE6D1" d="M1468.01 981.28h90.83v10.23h-90.83z"/><path fill="#FFF" d="M1264.95 981.28h75.361v10.23h-75.361zM1493.74 772.665H1092a2.086 2.086 0 0 1 0-4.17h401.74a2.086 2.086 0 0 1 0 4.17z"/><path fill="#353640" d="M1535.73 1043.135h-483.77a2.086 2.086 0 0 1 0-4.17h483.771a2.086 2.086 0 0 1-.001 4.17z"/><path fill="#949899" d="M838.26 1321.865a2.086 2.086 0 0 1-2.085-2.085v-8.33a2.086 2.086 0 0 1 4.17 0v8.33a2.085 2.085 0 0 1-2.085 2.085zm0-20.83a2.086 2.086 0 0 1-2.085-2.085v-8.33a2.086 2.086 0 0 1 4.17 0v8.33a2.085 2.085 0 0 1-2.085 2.085zm0-20.83a2.086 2.086 0 0 1-2.085-2.085v-8.33a2.086 2.086 0 0 1 4.17 0v8.33a2.086 2.086 0 0 1-2.085 2.085zm0-20.83a2.086 2.086 0 0 1-2.085-2.085v-8.33a2.086 2.086 0 0 1 4.17 0v8.33a2.086 2.086 0 0 1-2.085 2.085zm0-20.83a2.086 2.086 0 0 1-2.085-2.085v-8.33a2.086 2.086 0 0 1 4.17 0v8.33a2.085 2.085 0 0 1-2.085 2.085zm0-20.83a2.086 2.086 0 0 1-2.085-2.085v-8.33a2.086 2.086 0 0 1 4.17 0v8.33a2.085 2.085 0 0 1-2.085 2.085zm0-20.83a2.086 2.086 0 0 1-2.085-2.085v-8.33a2.086 2.086 0 0 1 4.17 0v8.33a2.085 2.085 0 0 1-2.085 2.085zm0-20.83a2.086 2.086 0 0 1-2.085-2.085v-8.33a2.086 2.086 0 0 1 4.17 0v8.33a2.085 2.085 0 0 1-2.085 2.085zm0-20.83a2.086 2.086 0 0 1-2.085-2.085v-8.33a2.086 2.086 0 0 1 4.17 0v8.33a2.085 2.085 0 0 1-2.085 2.085zm0-20.829a2.086 2.086 0 0 1-2.085-2.085v-4.32c0-1.151.934-2.085 2.085-2.085h4.01a2.086 2.086 0 0 1 0 4.17h-1.925v2.235a2.086 2.086 0 0 1-2.085 2.085zm774.719-4.321h-8.329a2.086 2.086 0 0 1 0-4.17h8.329a2.086 2.086 0 0 1 0 4.17zm-20.829 0h-8.33a2.086 2.086 0 0 1 0-4.17h8.33a2.086 2.086 0 0 1 0 4.17zm-20.83 0h-8.33a2.086 2.086 0 0 1 0-4.17h8.33a2.086 2.086 0 0 1 0 4.17zm-20.83 0h-8.33a2.086 2.086 0 0 1 0-4.17h8.33a2.086 2.086 0 0 1 0 4.17zm-20.83 0h-8.33a2.086 2.086 0 0 1 0-4.17h8.33a2.086 2.086 0 0 1 0 4.17zm-20.83 0h-8.33a2.086 2.086 0 0 1 0-4.17h8.33a2.086 2.086 0 0 1 0 4.17zm-20.83 0h-8.33a2.086 2.086 0 0 1 0-4.17h8.33a2.086 2.086 0 0 1 0 4.17zm-20.83 0h-8.33a2.086 2.086 0 0 1 0-4.17h8.33a2.086 2.086 0 0 1 0 4.17zm-20.83 0h-8.33a2.086 2.086 0 0 1 0-4.17h8.33a2.086 2.086 0 0 1 0 4.17zm-20.83 0h-8.33a2.086 2.086 0 0 1 0-4.17h8.33a2.086 2.086 0 0 1 0 4.17zm-20.83 0h-8.33a2.086 2.086 0 0 1 0-4.17h8.33a2.086 2.086 0 0 1 0 4.17zm-20.83 0h-8.33a2.086 2.086 0 0 1 0-4.17h8.33a2.086 2.086 0 0 1 0 4.17zm-20.83 0h-8.33a2.086 2.086 0 0 1 0-4.17h8.33a2.086 2.086 0 0 1 0 4.17zm-20.831 0h-8.33a2.086 2.086 0 0 1 0-4.17h8.33a2.086 2.086 0 0 1 0 4.17zm-20.829 0h-8.33a2.086 2.086 0 0 1 0-4.17h8.33a2.086 2.086 0 0 1 0 4.17zm-20.83 0h-8.33a2.086 2.086 0 0 1 0-4.17h8.33a2.086 2.086 0 0 1 0 4.17zm-20.83 0h-8.33a2.086 2.086 0 0 1 0-4.17h8.33a2.086 2.086 0 0 1 0 4.17zm-20.83 0h-8.33a2.086 2.086 0 0 1 0-4.17h8.33a2.086 2.086 0 0 1 0 4.17zm-20.83 0h-8.33a2.086 2.086 0 0 1 0-4.17h8.33a2.086 2.086 0 0 1 0 4.17zm-20.831 0h-8.33a2.086 2.086 0 0 1 0-4.17h8.33a2.086 2.086 0 0 1 0 4.17zm-20.83 0h-8.33a2.086 2.086 0 0 1 0-4.17h8.33a2.086 2.086 0 0 1 0 4.17zm-20.829 0h-8.33a2.086 2.086 0 0 1 0-4.17h8.33a2.086 2.086 0 0 1 0 4.17zm-20.83 0h-8.33a2.086 2.086 0 0 1 0-4.17h8.33a2.086 2.086 0 0 1 0 4.17zm-20.83 0h-8.33a2.086 2.086 0 0 1 0-4.17h8.33a2.086 2.086 0 0 1 0 4.17zm-20.83 0h-8.33a2.086 2.086 0 0 1 0-4.17h8.33a2.086 2.086 0 0 1 0 4.17zm-20.831 0h-8.33a2.086 2.086 0 0 1 0-4.17h8.33a2.086 2.086 0 0 1 0 4.17zm-20.829 0h-8.33a2.086 2.086 0 0 1 0-4.17h8.33a2.086 2.086 0 0 1 0 4.17zm-20.83 0h-8.33a2.086 2.086 0 0 1 0-4.17h8.33a2.086 2.086 0 0 1 0 4.17zm-20.83 0h-8.33a2.086 2.086 0 0 1 0-4.17h8.33a2.086 2.086 0 0 1 0 4.17zm-20.83 0h-8.33a2.086 2.086 0 0 1 0-4.17h8.33a2.086 2.086 0 0 1 0 4.17zm-20.83 0h-8.33a2.086 2.086 0 0 1 0-4.17h8.33a2.086 2.086 0 0 1 0 4.17zm-20.83 0h-8.33a2.086 2.086 0 0 1 0-4.17h8.33a2.086 2.086 0 0 1 0 4.17zm-20.83 0h-8.33a2.086 2.086 0 0 1 0-4.17h8.33a2.086 2.086 0 0 1 0 4.17zm-20.83 0h-8.33a2.086 2.086 0 0 1 0-4.17h8.33a2.086 2.086 0 0 1 0 4.17zm-20.83 0h-8.33a2.086 2.086 0 0 1 0-4.17h8.33a2.086 2.086 0 0 1 0 4.17zm-20.83 0h-8.33a2.086 2.086 0 0 1 0-4.17h8.33a2.086 2.086 0 0 1 0 4.17zm-20.83 0h-8.33a2.086 2.086 0 0 1 0-4.17h8.33a2.086 2.086 0 0 1 0 4.17zm759.339-3.04a2.086 2.086 0 0 1-2.085-2.085v-8.33a2.086 2.086 0 0 1 4.17 0v8.33a2.085 2.085 0 0 1-2.085 2.085zm0-20.83a2.086 2.086 0 0 1-2.085-2.085v-8.33a2.086 2.086 0 0 1 4.17 0v8.33a2.085 2.085 0 0 1-2.085 2.085zm0-20.83a2.086 2.086 0 0 1-2.085-2.085v-8.33a2.086 2.086 0 0 1 4.17 0v8.33a2.085 2.085 0 0 1-2.085 2.085zm0-20.83a2.086 2.086 0 0 1-2.085-2.085v-8.33a2.086 2.086 0 0 1 4.17 0v8.33a2.085 2.085 0 0 1-2.085 2.085zm0-20.83a2.086 2.086 0 0 1-2.085-2.085v-8.33a2.086 2.086 0 0 1 4.17 0v8.33a2.085 2.085 0 0 1-2.085 2.085zm0-20.83a2.086 2.086 0 0 1-2.085-2.085v-8.33a2.086 2.086 0 0 1 4.17 0v8.33a2.085 2.085 0 0 1-2.085 2.085zm0-20.83a2.086 2.086 0 0 1-2.085-2.085v-8.33a2.086 2.086 0 0 1 4.17 0v8.33a2.085 2.085 0 0 1-2.085 2.085zm0-20.83a2.086 2.086 0 0 1-2.085-2.085v-8.33a2.086 2.086 0 0 1 4.17 0v8.33a2.085 2.085 0 0 1-2.085 2.085zm0-20.83a2.086 2.086 0 0 1-2.085-2.085v-8.33a2.086 2.086 0 0 1 4.17 0v8.33a2.085 2.085 0 0 1-2.085 2.085z"/><path fill="#F72E70" d="M532.12 1558.99s-92.56 54.399-104.97 119.29h-50.58s6.68-138.37 30.54-170.82c23.859-32.45 114.2-80.13 114.2-80.13l10.81 131.66zM746.85 1558.99s92.561 54.399 104.971 119.29h50.58s-6.681-138.37-30.54-170.82c-23.86-32.45-114.2-80.13-114.2-80.13l-10.811 131.66z"/><path fill="#5630AD" d="M639.49 1001.67s-154.601 99.25-143.15 221.4c11.45 122.149 28.63 335.92 28.63 335.92s27.67 78.25 81.12 118.33h66.799c53.44-40.08 81.11-118.33 81.11-118.33s17.18-213.771 28.63-335.92c11.461-122.15-143.139-221.4-143.139-221.4z"/><path fill="#FFF" d="M536.01 1584.75c12.68 26.43 36.2 67.17 70.08 92.57h66.8c33.869-25.4 57.39-66.141 70.069-92.57H536.01zM639.49 1001.67s-45.851 29.44-85.771 75.98c24.351 8.649 53.9 13.72 85.771 13.72 31.859 0 61.41-5.07 85.76-13.72-39.91-46.54-85.76-75.98-85.76-75.98zM639.49 1240.31c35.84 0 64.89 29.051 64.89 64.891s-29.05 64.9-64.89 64.9-64.9-29.061-64.9-64.9 29.06-64.891 64.9-64.891z"/><path fill="#353640" d="M639.49 1372.186c-36.936 0-66.985-30.049-66.985-66.985 0-36.931 30.049-66.976 66.985-66.976 36.93 0 66.975 30.045 66.975 66.976 0 36.935-30.045 66.985-66.975 66.985zm0-129.791c-34.637 0-62.815 28.174-62.815 62.806 0 34.637 28.179 62.815 62.815 62.815 34.63 0 62.805-28.179 62.805-62.815 0-34.632-28.174-62.806-62.805-62.806z"/><path fill="#F72E70" d="M630.66 1678.28h17.651v-250.95H630.66z"/><path fill="#2A1D19" d="M524.967 1561.075a2.086 2.086 0 0 1-2.076-1.915l-9.01-109.95a2.086 2.086 0 0 1 1.908-2.249 2.079 2.079 0 0 1 2.249 1.908l9.01 109.951a2.085 2.085 0 0 1-2.081 2.255zM757.512 1517.945a2.086 2.086 0 0 1-2.08-2.26l17.15-204.07a2.085 2.085 0 1 1 4.155.349l-17.15 204.07a2.085 2.085 0 0 1-2.075 1.911z"/><path fill="#FFF" d="M648.311 1662.235a2.086 2.086 0 0 1-2.085-2.085v-216.63a2.086 2.086 0 0 1 4.17 0v216.63a2.085 2.085 0 0 1-2.085 2.085zM882.377 1600.685a2.085 2.085 0 0 1-2.061-1.785c-.079-.54-7.911-54.22-12.12-69.909-4.044-15.031-26.363-30.147-26.588-30.298a2.086 2.086 0 0 1 2.322-3.464c.972.651 23.841 16.135 28.293 32.68 4.273 15.928 11.897 68.175 12.22 70.392a2.085 2.085 0 0 1-2.066 2.384zM424.782 1504.295a2.087 2.087 0 0 1-1.288-3.726c.366-.287 37.066-28.968 73.557-48.4a2.085 2.085 0 0 1 1.96 3.68c-36.169 19.261-72.58 47.715-72.943 48-.382.3-.836.446-1.286.446z"/><path fill="#353640" d="M672.89 1679.405h-66.8c-.451 0-.89-.146-1.251-.417-53.338-39.996-81.556-118.515-81.835-119.303a2.085 2.085 0 1 1 3.932-1.39c.274.774 27.895 77.582 79.852 116.94h65.404c51.972-39.376 79.569-116.166 79.842-116.94a2.086 2.086 0 0 1 3.932 1.39c-.279.788-28.497 79.307-81.825 119.303-.361.271-.8.417-1.251.417zm109.742-454.25a2.085 2.085 0 0 1-2.078-2.28c5.848-62.331-33.058-118.635-66.725-154.893-33.101-35.648-67.717-59.403-74.339-63.816-6.625 4.416-41.298 28.215-74.404 63.883-33.638 36.243-72.511 92.523-66.671 154.826a2.085 2.085 0 0 1-1.881 2.271 2.08 2.08 0 0 1-2.271-1.881c-2.648-28.248 3.32-57.598 17.737-87.233 11.489-23.615 28.342-47.465 50.092-70.887 36.971-39.814 75.882-64.98 76.271-65.229a2.084 2.084 0 0 1 2.253 0c.389.25 39.299 25.416 76.269 65.229 21.749 23.422 38.601 47.272 50.089 70.887 14.416 29.636 20.382 58.985 17.731 87.233a2.084 2.084 0 0 1-2.073 1.89zM639.49 1939.925a2.086 2.086 0 0 1-2.031-1.612c-.211-.905-21.687-91.057-72.958-134.014-12.152-10.186-18.079-22.238-17.618-35.822 1.263-37.163 49.515-72.736 51.569-74.232a2.083 2.083 0 0 1 2.912.458c.678.93.474 2.234-.457 2.912-.486.355-48.668 35.88-49.857 71.01-.414 12.234 5.013 23.161 16.128 32.479 43.431 36.388 65.821 105.561 72.311 128.596 6.489-23.035 28.878-92.208 72.3-128.596 11.116-9.317 16.542-20.244 16.128-32.479-1.188-35.13-49.371-70.654-49.857-71.01a2.085 2.085 0 0 1 2.455-3.37c2.054 1.496 50.306 37.069 51.569 74.232.461 13.584-5.466 25.637-17.617 35.821-51.262 42.958-72.737 133.109-72.948 134.015a2.082 2.082 0 0 1-2.029 1.612z"/><path fill="#F63" d="M670.57 1695.93s67.35 43.681 26.42 74.21c-40.93 30.53-57.5 93.94-57.5 93.94s-16.58-63.41-57.51-93.94c-40.931-30.529 26.42-74.209 26.42-74.209l62.17-.001z"/><path fill="#FFF" d="M2140.33 1804.34h142.42v95.76h-142.42z"/><path fill="#353640" d="M2211.54 1875.625a2.075 2.075 0 0 1-1.453-.59l-71.21-69.2a2.084 2.084 0 1 1 2.906-2.99l69.757 67.788 69.757-67.788a2.085 2.085 0 0 1 2.906 2.99l-71.21 69.2c-.404.394-.929.59-1.453.59z"/><path fill="#353640" d="M2140.331 1902.185a2.084 2.084 0 0 1-1.406-3.625l50.82-46.37a2.08 2.08 0 0 1 2.945.135 2.084 2.084 0 0 1-.135 2.945l-50.82 46.37a2.075 2.075 0 0 1-1.404.545zM2282.749 1902.185c-.501 0-1.005-.18-1.404-.545l-50.82-46.37a2.084 2.084 0 1 1 2.81-3.08l50.82 46.37a2.084 2.084 0 0 1-1.406 3.625z"/><path fill="#F72E70" d="M2420.15 1190.4h109.309c20.42 0 37.12-16.7 37.12-37.11 0-20.42-16.7-37.12-37.12-37.12-6.41 0-12.46 1.65-17.74 4.55-7.92-15.92-24.37-26.92-43.271-26.92-24.39 0-44.699 18.32-47.869 41.87a29.62 29.62 0 0 0-3.15-.18c-15.1 0-27.45 12.359-27.45 27.46 0 15.1 12.351 27.449 27.45 27.449l2.721.001z"/><path fill="#353640" d="M2529.46 1192.484h-112.03c-16.285 0-29.534-13.249-29.534-29.534 0-16.291 13.249-29.545 29.534-29.545.453 0 .914.011 1.386.034 4.182-23.923 25.179-41.725 49.635-41.725a2.086 2.086 0 0 1 0 4.17c-23.038 0-42.729 17.224-45.804 40.063a2.086 2.086 0 0 1-2.288 1.795 27.344 27.344 0 0 0-2.929-.168c-13.986 0-25.364 11.383-25.364 25.375 0 13.986 11.378 25.364 25.364 25.364h112.03a2.086 2.086 0 0 1 0 4.171zm-17.738-69.679a2.084 2.084 0 0 1-1.006-3.913 39.05 39.05 0 0 1 18.744-4.807 2.086 2.086 0 0 1 0 4.17 34.864 34.864 0 0 0-16.736 4.292 2.078 2.078 0 0 1-1.002.258z"/><path fill="#5630AD" d="M2462.09 1508.87s-19.46 47.89-131.71 70.34c0 0-73.899 172.07 131.71 277.78 205.601-105.71 131.7-277.78 131.7-277.78-112.25-22.45-131.7-70.34-131.7-70.34z"/><path fill="#FFF" d="M2583.032 1589.775c-.136 0-.272-.013-.411-.04-53.649-10.732-83.993-27.913-100.001-40.436-17.586-13.757-22.271-24.955-22.462-25.426a2.084 2.084 0 1 1 3.863-1.569c.042.101 4.627 10.868 21.519 23.983 15.651 12.151 45.341 28.843 97.899 39.356a2.087 2.087 0 0 1-.407 4.132z"/><path fill="#2A1D19" d="M2462.09 1844.865c-.327 0-.654-.077-.953-.23-43.367-22.298-76.777-49.706-99.301-81.462-18.062-25.466-29.196-53.753-33.093-84.077-6.633-51.605 10.309-91.828 10.48-92.229a2.085 2.085 0 0 1 3.832 1.645c-.168.392-16.698 39.726-10.152 90.243 6.014 46.404 33.327 112.051 129.187 161.678 37.317-19.325 67.144-42.512 88.664-68.93a2.084 2.084 0 1 1 3.233 2.633c-22.068 27.091-52.666 50.81-90.942 70.498a2.095 2.095 0 0 1-.955.231z"/><path fill="#FFF" d="M2459.04 1737.295a2.082 2.082 0 0 1-1.475-.61l-59.979-59.97a2.087 2.087 0 0 1 0-2.949 2.087 2.087 0 0 1 2.949 0l58.505 58.496 90.925-90.927a2.086 2.086 0 0 1 2.949 2.949l-92.399 92.4a2.08 2.08 0 0 1-1.475.611z"/><path fill="#7DA3FB" d="M1583.84 1454.63h120.28c22.46 0 40.829-18.38 40.829-40.84 0-22.46-18.369-40.84-40.829-40.84-7.061 0-13.71 1.82-19.521 5.01-8.72-17.52-26.82-29.62-47.609-29.62-26.84 0-49.19 20.15-52.67 46.07a30.5 30.5 0 0 0-3.461-.2c-16.619 0-30.209 13.6-30.209 30.21 0 16.62 13.59 30.21 30.209 30.21h2.981z"/><path fill="#353640" d="M1704.12 1456.715h-123.261c-17.807 0-32.294-14.487-32.294-32.295s14.487-32.295 32.294-32.295c.559 0 1.124.015 1.694.046 4.501-26.313 27.56-45.916 54.437-45.916a2.086 2.086 0 0 1 0 4.17c-25.461 0-47.216 19.029-50.604 44.263a2.081 2.081 0 0 1-2.303 1.794 28.6 28.6 0 0 0-3.225-.187c-15.508 0-28.124 12.617-28.124 28.125s12.616 28.125 28.124 28.125h123.261a2.086 2.086 0 0 1 .001 4.17zm-19.518-76.67a2.084 2.084 0 0 1-1.006-3.913 42.76 42.76 0 0 1 20.524-5.267 2.086 2.086 0 0 1 0 4.17 38.595 38.595 0 0 0-18.517 4.752 2.074 2.074 0 0 1-1.001.258z"/><path fill="#353640" d="M1647.8 1477.485a2.086 2.086 0 0 1-2.085-2.085v-77.107l-19.561 19.561a2.086 2.086 0 0 1-2.949-2.948l23.12-23.12a2.084 2.084 0 0 1 3.559 1.474v82.141a2.083 2.083 0 0 1-2.084 2.084z"/><path fill="#353640" d="M1670.92 1418.465a2.083 2.083 0 0 1-1.475-.611l-23.12-23.12a2.086 2.086 0 0 1 2.949-2.948l23.12 23.12a2.086 2.086 0 0 1-1.474 3.559z"/><path fill="#FFAF18" d="M1673.59 1759.62c33.53 0 60.71 27.189 60.71 60.72s-27.18 60.71-60.71 60.71c-33.529 0-60.72-27.18-60.72-60.71s27.191-60.72 60.72-60.72z"/><path fill="#FFF" d="M1651.688 1832.675c-.354 0-.712-.09-1.04-.279l-20.868-12.041a2.088 2.088 0 0 1-.89-2.682 2.059 2.059 0 0 1 .889-.965l20.868-12.053a2.085 2.085 0 1 1 2.086 3.612l-17.772 10.264 17.771 10.255a2.085 2.085 0 0 1-1.044 3.889zM1695.492 1832.675a2.084 2.084 0 0 1-1.044-3.891l17.763-10.255-17.764-10.264a2.086 2.086 0 0 1 2.086-3.612l20.857 12.053a2.067 2.067 0 0 1 .889.962 2.075 2.075 0 0 1-.431 2.34 2.071 2.071 0 0 1-.457.343l-20.859 12.042a2.05 2.05 0 0 1-1.04.282zM1665.511 1852.556a2.085 2.085 0 0 1-2.015-2.626l16.15-60.26a2.085 2.085 0 1 1 4.028 1.08l-16.15 60.26a2.088 2.088 0 0 1-2.013 1.546z"/><path fill="#F93" d="M1381.68 1715.75s36.24 10.55 51.36 52.36c15.11 41.819 106.3 294.72 106.3 294.72 60.68 147.61 78.83 232.979-18.59 269.101-46.46 11.93-85.25 10.459-102.32-21.23-46.14-85.64-135.01-321.42-150.13-394.98-15.11-73.551-2.829-235.011 113.38-199.971z"/><path fill="#F93" d="M1539.34 2062.83s69.52-20.15 110.33-46.85c40.811-26.7 73.561-18.141 87.66 4.029 14.109 22.171 105.3 192.96 18.64 217.141-54.67 15.26-156.35 74.63-235.55 94.86-63.109 12.949-104.8-51.57-99.77-133.091 5.039-81.619 118.69-136.089 118.69-136.089z"/><path fill="#F63" d="M1695.27 1999.43c19.03-.779 33.771 7.551 42.061 20.58 14.109 22.17 105.3 192.96 18.641 217.14-54.671 15.261-156.351 74.631-235.551 94.86 40.82-16.02 71.02-74.649 144.08-93.8 73.05-19.14 47.35-29.22 47.35-29.22-49.369-16.12-70.529-101.261-68.01-148.12 2.489-46.45 50.619-61.2 51.429-61.44z"/><path fill="#2A1D19" d="M1491.768 2094.605a2.085 2.085 0 0 1-1.74-3.232c14.924-22.671 72.726-38.456 75.18-39.117a2.085 2.085 0 0 1 1.084 4.028c-.585.157-58.725 16.029-72.781 37.383a2.085 2.085 0 0 1-1.743.938z"/><path fill="#FFAF18" d="M1105.82 1654.55s-132.23 62.21-208.811 96.471c0 0-36.27 97.729-36.27 293.209v401.021h485.67s27.21-240.81 44.34-358.7c17.13-117.89-9.07-370.8-9.07-370.8l-138.54-61.46c.001-.001-71.039-28.221-137.319.259z"/><path fill="#F63" d="M868.78 1892.9c-4.67 41.39-8.04 91.819-8.04 151.329v401.021h130.08c73.29-37 245-124.771 274.17-149.61 37.28-31.74 29.72-68.54 29.72-68.54s-306.81 22.19-304.79-7.03c2.01-29.22 42.561-262.109 42.561-262.109L868.78 1892.9z"/><path fill="#2A1D19" d="M1346.412 2447.335a2.085 2.085 0 0 1-2.081-2.237c.093-1.264 9.501-127.974 31.471-263.022 21.914-134.755 14.899-321.979 14.825-323.854a2.085 2.085 0 0 1 2.002-2.165c1.134-.086 2.12.851 2.165 2.001.073 1.88 7.104 189.523-14.876 324.688-21.939 134.859-31.335 261.395-31.428 262.657a2.086 2.086 0 0 1-2.078 1.932zM1258.98 1789.885h-57.931a2.086 2.086 0 0 1 0-4.17h57.931a2.086 2.086 0 0 1 0 4.17z"/><path fill="#FCCAC3" d="m1170.84 2133.34 116.36-52.78s47.6-54.01 76.87-73.13c29.279-19.12 61.93-12.06 83.949-9.56 22.021 2.49 83.17 5.89 81.711 20.85-1.451 14.96-26.86 14.471-26.86 14.471l-82.48-4.37s58.8 20.569 66.69 28.47c7.9 7.89 30.06 30.76 35.66 50.18 1.08 3.75-5.86 13.98-14.471 8.91-10.66-6.28-26.81-18.84-26.81-18.84s12.271 16.17 16.78 25.16c3.039 6.08-5.32 15.22-11.78 14.869-9.261-.5-24.47-11.119-29.521-14.899 0 0 8.561 8.26 11.07 18.45 2.05 8.34-4.68 14.87-10.97 14.97-22.64.32-69.4-15.05-69.4-15.05s-17.64 35.49-61.34 28.34l-124.479 78.65c.001-.001-66.489-55.691-30.979-114.691z"/><path fill="#2A1D19" d="M1481.458 2099.625a2.08 2.08 0 0 1-1.256-.422c-.212-.16-21.313-16.078-29.527-19.466-8.267-3.408-57.279-12.695-57.773-12.789a2.087 2.087 0 0 1-1.662-2.437 2.088 2.088 0 0 1 2.436-1.661c2.035.385 49.93 9.462 58.588 13.031 8.708 3.592 29.568 19.327 30.452 19.995a2.085 2.085 0 0 1-1.258 3.749zM1458.408 2126.125c-.409 0-.822-.12-1.184-.37-.171-.118-17.163-11.862-24.834-16.567-6.04-3.704-33.634-5.988-43.757-6.556a2.085 2.085 0 0 1-1.965-2.199c.064-1.149 1.053-2.017 2.198-1.965 3.833.215 37.677 2.242 45.704 7.165 7.77 4.766 24.325 16.208 25.026 16.692a2.084 2.084 0 0 1-1.188 3.8zM1421.542 2152.196c-.179 0-.36-.023-.541-.072l-33.899-9.07a2.084 2.084 0 1 1 1.078-4.028l33.899 9.07a2.084 2.084 0 0 1-.537 4.1z"/><path fill="#F93" d="M897.01 1751.021s-41.79 11.069-80.08 135c-38.29 123.939-89.67 286.159-89.67 286.159s-42.32 105.8 28.21 182.38c40.88 44.381 82.771 65.74 130.19 67.82 87.97-14.77 32.92-119.479 62.27-239.119 0 0 51.381-137.03 81.61-216.631 30.23-79.6 5.61-279.029-132.53-215.609z"/><path fill="#F93" d="M885.66 2422.38c34.4 1.51 71.71-7.13 113.65-24.5 98.6-40.83 298.55-99.38 295.399-170.78h.03s38.6-18.649 37.59-25.2c-1-6.55-57.43-127.459-65.49-132-8.06-4.529-34.77 16.631-34.77 16.631s-32.24-43.32-82.62-9.07c-50.38 34.26-201.521 105.8-201.521 105.8s-69.37 42.86-110.68 77.12c-41.309 34.249-52.198 151.669 48.412 161.999z"/><path fill="#2A1D19" d="M895.512 2219.525a2.085 2.085 0 0 1-1.218-3.779c1.56-1.119 38.355-27.487 52.736-34.367a2.084 2.084 0 1 1 1.8 3.761c-14.051 6.723-51.725 33.722-52.104 33.994a2.079 2.079 0 0 1-1.214.391zM1290.191 2209.564a2.08 2.08 0 0 1-1.716-.898c-27.029-39.055-52.191-104.375-52.442-105.03a2.085 2.085 0 0 1 3.894-1.492c.25.65 25.235 65.511 51.977 104.149a2.085 2.085 0 0 1-1.713 3.271z"/><path fill="#F63" d="M1294.74 2229.186c-1.151 0-2.1-.934-2.1-2.085a2.08 2.08 0 0 1 1.378-1.967c19.344-9.363 35.922-19.874 36.247-22.988-.483-2.794-13.896-32.863-29.82-65.905-21.792-45.219-32.28-63.022-34.639-64.529-4.698-2.647-21.803 8.029-32.441 16.454a2.085 2.085 0 0 1-2.967-.389c-.078-.104-8.008-10.572-21.763-16.796-18.305-8.284-37.823-5.521-58.013 8.205-49.936 33.958-200.288 105.243-201.801 105.96a2.084 2.084 0 1 1-1.784-3.769c1.51-.715 151.57-71.862 201.24-105.639 26.826-18.237 48.653-14.678 62.24-8.482 11.456 5.226 18.97 13 21.878 16.379 7.021-5.391 27.4-20.082 35.465-15.55 9.29 5.232 65.491 126.697 66.53 133.503.419 2.72-1.562 6.89-19.437 17.178-9.479 5.456-19.209 10.167-19.307 10.214a2.115 2.115 0 0 1-.906.206z"/><path fill="#FCCAC3" d="M1708.92 2017.7s-35.12 16.25-35.359 58.21c-.24 41.95 27.47 52.62 27.47 52.62s9.2 47.3 50.78 48.529c41.58 1.23 70.779-28.33 70.779-28.33l17.59 11.881s-2.34 12.859 6.01 15.39c8.341 2.53 28.041 4.2 32.44-24.341 4.39-28.539-46.83-50.76-46.83-50.76l22.66 2.82s11.49 27.72 28.55 21.79c17.061-5.94 9.311-76.479-67.17-60.38l46.04-10.49s15.55 32.811 38.15 22.53c22.59-10.28 1.64-64.49-47.42-59.28-49.05 5.21-66.45 12.601-66.45 12.601s80.71-42.57 104.641-56.32c23.93-13.74 16.299-58.271-32.551-31.16s-149.33 74.69-149.33 74.69z"/><path fill="#2A1D19" d="M1736.989 2125.475a2.085 2.085 0 0 1-1.608-3.412c19.965-24.225 7.643-71.09 7.517-71.561a2.084 2.084 0 0 1 3.737-1.716c.081.118 8.21 12.036 23.482 31.693 5.11 6.569 10.495 8.434 15.574 5.393 6.251-3.744 9.861-13.765 7.154-19.856l-1.286-2.906c-4.799-10.86-16.037-36.292-21.054-39.161-4.731-2.709-26.226-7.448-34.108-9.045a2.086 2.086 0 0 1 .828-4.088c1.185.24 29.072 5.918 35.352 9.514 5.727 3.275 14.401 22.097 22.796 41.095l1.283 2.898c3.58 8.055-.707 20.267-8.822 25.128-3.288 1.967-11.914 5.282-21.009-6.411-7.845-10.098-13.821-18.172-17.802-23.672 2.683 15.717 5.247 46.333-10.423 65.348-.413.5-1.01.759-1.611.759z"/><path fill="#FCCAC3" d="m1145.99 1529.729-40.17 124.82s25.949 57.68 37.529 82.37c11.59 24.68 25.7 30.729 58.44 30.729h56.93c25.7 0 17.13-30.729 8.07-101.77l8.569-109.83c.001.002-59.958-39.288-129.368-26.319z"/><path fill="#ED6056" d="m1145.99 1529.729-10.7 33.24c8.46 46.721 37.07 120.54 133.44 117.67-.641-4.71-1.291-9.63-1.94-14.76l8.29-106.359c-22.33-12.73-47.21-23.381-71.21-29.94-17.59-2.95-37.32-3.69-57.88.149z"/><path fill="#FCCAC3" d="M1324.95 1302.93s14.83 62.511 29.079 162.25c14.24 99.74-1.1 145.24-100.289 155.091-99.19 9.869-130.99-95.351-130.99-95.351s-14.82-41.7-34.55-140.33c-19.721-98.64 200.579-177.56 236.75-81.66z"/><path fill="#2A1D19" d="M1080.07 1484.14c-27.21-62.979-76.58-140.06-35.271-161.22 0 0-35.77-69.02 69.021-98.24 104.79-29.22 227.72-103.779 229.739-2.02 0 0 3.021 90.69-36.279 97.74-39.29 7.05-183.891 43.829-183.891 43.829s3.71 48.37 18.011 87.541c18.329 50.2-34.06 95.49-61.33 32.37z"/><path fill="#2A1D19" d="M1372.52 1529.979s.511-63.479-31.229-44.329c-31.74 19.14-140.05 59.699-163.729 28.96-23.681-30.73-25.011-38.54-39.711-73.431-14.699-34.89-45.43-17.76-45.43-17.76s59.37 136.05 65.96 161.229c6.58 25.181 12.13 71.53 104.32 60.95 92.199-10.578 114.36-39.038 109.819-115.619z"/><path fill="#FFF" d="M1273.946 1542.309c-13.563 0-18.612-8.373-18.837-8.758a2.086 2.086 0 0 1 3.596-2.113c.213.353 4.957 7.888 18.397 6.537 14.602-1.458 34.898-10.804 35.102-10.897a2.086 2.086 0 0 1 1.753 3.784c-.856.396-21.146 9.736-36.439 11.263-1.25.125-2.442.184-3.572.184z"/><path fill="#2A1D19" d="M1285.989 1492.443c-4.09 0-7.294-.277-8.137-.358a2.084 2.084 0 0 1 .396-4.151c5.866.56 22.128.947 26.843-3.884.925-.948 1.281-2.017 1.12-3.362-1.18-9.835-26.983-43.29-36.825-55.35a2.086 2.086 0 0 1 3.231-2.637c3.701 4.534 36.197 44.668 37.735 57.49.31 2.587-.478 4.929-2.277 6.772-4.471 4.579-14.716 5.48-22.086 5.48zM1219.29 1428.94c4.44-1.061 8.94 1.699 10 6.13l3.88 16.14c1.061 4.439-1.7 8.939-6.13 10.01h-.01c-4.431 1.07-8.94-1.689-10-6.13l-3.87-16.14c-1.07-4.44 1.69-8.94 6.13-10.01zM1307.7 1408.729c4.18-1 8.41 1.601 9.41 5.771l3.649 15.19c1 4.18-1.6 8.409-5.77 9.42-4.181 1-8.42-1.601-9.42-5.771l-3.641-15.189c-1.008-4.18 1.592-8.41 5.772-9.421zM1193.96 1417.63c2.021-.5 38.04-5.29 41.31-11.84 3.28-6.55-8.18-9.57-16.75-7.3-8.56 2.27-35.89 20.531-24.56 19.14zM1319.311 1384.43c-1.881.37-33.94 10.75-39.16 6.12-5.221-4.64 3.27-12.09 11.31-13.529 8.049-1.431 37.889 4.039 27.85 7.409z"/><path fill="#FCCAC3" d="M1145.77 1522.86s-4.779-91.221-64.289-68.631c-59.511 22.591-20.4 125.131 53.869 93.841 0 0 12.81-5.88 10.42-25.21z"/><path fill="#2A1D19" d="M1125.92 1516.195c-.182 0-.366-.023-.548-.073-.106-.028-11.023-2.908-28.527-1.692a2.086 2.086 0 0 1-.289-4.161c10.892-.758 19.261-.007 24.345.75-18.168-21.579-40.241-18.066-40.475-18.024a2.085 2.085 0 0 1-.711-4.109c1.123-.194 27.727-4.427 47.906 24.019a2.084 2.084 0 0 1-1.701 3.29z"/><path fill="#353640" d="M1210.778 1330.185a2.085 2.085 0 0 1-.46-4.119c.443-.101 44.71-10.187 82.488-21.622 36.457-11.039 38.307-38.646 38.322-38.923a2.09 2.09 0 0 1 2.19-1.974 2.085 2.085 0 0 1 1.974 2.19c-.016.307-2.049 30.82-41.278 42.698-37.922 11.479-82.328 21.596-82.772 21.697a2.059 2.059 0 0 1-.464.053zM1231.497 1496.218c-24.657 0-47.128-16.767-53.281-41.75a55.58 55.58 0 0 1-1.54-10.755l-73.871 9.137a2.084 2.084 0 1 1-.512-4.138l74.36-9.197c.793-24.523 17.718-45.516 41.718-51.418 14.225-3.504 28.966-1.256 41.506 6.33 12.538 7.585 21.372 19.598 24.877 33.827 7.222 29.364-10.792 59.139-40.157 66.373a54.94 54.94 0 0 1-13.1 1.591zm-50.702-54.828a51.135 51.135 0 0 0 1.471 12.085c5.684 23.079 26.45 38.571 49.231 38.573 3.998 0 8.054-.477 12.105-1.473 27.132-6.684 43.777-34.195 37.104-61.327-6.686-27.143-34.201-43.786-61.337-37.104-22.722 5.588-38.581 25.814-38.573 49.189l-.001.057zm159.244 28.118c-24.66 0-47.127-16.77-53.273-41.76-3.503-14.222-1.256-28.96 6.33-41.498 7.585-12.537 19.598-21.371 33.826-24.875 25.956-6.379 52.22 6.939 62.968 30.382l.032.071a54.929 54.929 0 0 1 3.372 9.705c3.504 14.227 1.257 28.967-6.329 41.506-7.584 12.537-19.598 21.372-33.826 24.876a54.853 54.853 0 0 1-13.1 1.593zm-12.121-104.084c-13.146 3.238-24.247 11.401-31.256 22.985s-9.085 25.201-5.848 38.342c6.675 27.139 34.187 43.787 61.328 37.114 13.146-3.238 24.247-11.401 31.255-22.986 7.009-11.585 9.085-25.205 5.848-38.351a50.763 50.763 0 0 0-2.537-7.649l-40.519 3.887a2.085 2.085 0 0 1-.399-4.151l39.012-3.742c-10.629-20.02-33.892-31.104-56.884-25.449zM1530.77 2399.99H2238c12.88 0 23.43-10.54 23.43-23.431v-23.43h-754.09v23.43c0 12.891 10.54 23.431 23.43 23.431z"/><path fill="#949899" d="M1898.27 1935.61h432.42c23.44 0 37.471 19.17 31.19 42.6l-89.04 332.311c-6.28 23.43-30.59 42.609-54.02 42.609H1786.4c-23.44 0-37.471-19.18-31.19-42.609l89.04-332.311c6.279-23.43 30.58-42.6 54.02-42.6z"/><path fill="#FFF" d="M2067.39 2111.351c18.24 0 29.061 14.779 24.17 33.02-4.88 18.23-23.63 33.01-41.86 33.01-18.239 0-29.06-14.779-24.17-33.01 4.88-18.241 23.63-33.02 41.86-33.02z"/><path fill="#F93" d="m509.75 2288.82 17.61 111.17H679.71l17.61-111.17zM509.39 2245.37h188.29c3.771 0 6.86 3.09 6.86 6.86v29.729c0 3.771-3.09 6.86-6.86 6.86H509.39c-3.77 0-6.859-3.09-6.859-6.86v-29.729c-.001-3.77 3.089-6.86 6.859-6.86z"/><path fill="#2A1D19" d="M697.32 2288.82H509.75l2.78 17.59z"/><path fill="#FFF" d="M690.91 2253.936H551.43a2.086 2.086 0 0 1 0-4.17h139.48a2.086 2.086 0 0 1 0 4.17z"/><path fill="#59BD9F" d="M434.35 2372.7s-23.569-42.01 29.891-90.78 126.66-63.33 139.3-36.55c-.001 0-123.081 23.19-169.191 127.33z"/><path fill="#59BD9F" d="M510.24 1998.59s-10.4 62.75 45.22 113.05c55.61 50.311 66.72 97.17 48.13 133.53 0 0-6.42-46.74-60.56-91.05-54.14-44.31-67.16-116.13-32.79-155.53z"/><path fill="#276169" d="M603.53 2247.455a2.085 2.085 0 0 1-1.637-.794c-.398-.499-31.722-38.851-107.195-42.549-32.516-1.593-58.043-19.448-73.82-51.635-11.822-24.117-13.998-47.374-14.084-48.353a2.084 2.084 0 0 1 2.439-2.239c16.002 2.823 26.448 14.302 38.542 27.593 17.668 19.417 39.658 43.583 89.018 47.662 29.465 2.432 50.033 11.671 61.133 27.461 13.397 19.058 7.86 40.41 7.618 41.31a2.086 2.086 0 0 1-2.014 1.544zM411.293 2106.6c.961 6.935 4.223 25.51 13.381 44.149 15.287 31.111 38.915 47.664 70.228 49.199 40.492 1.983 68.253 13.811 84.411 23.383 11.739 6.955 19.167 13.668 22.915 17.497.872-6.794 1.266-21.089-7.746-33.873-10.364-14.702-29.889-23.335-58.033-25.657-50.996-4.215-73.598-29.054-91.759-49.012-10.829-11.9-20.277-22.284-33.397-25.686z"/><path fill="#67CFB0" d="m768.66 2118.38-165.18 126.99s-12.43-124.33 165.18-126.99z"/><path fill="#276169" d="M755.04 2345.055a2.086 2.086 0 0 1-1.627-.781c-.782-.976-78.895-97.572-140.542-97.572-3.075 0-6.099.244-8.988.726a2.082 2.082 0 0 1-2.385-2.476c.174-.846 4.791-20.784 51.068-28.308 3.251-.528 6.686-.796 10.209-.796 26.659 0 55.917 14.754 74.539 37.587 13.936 17.087 28.677 46.563 19.769 89.955a2.085 2.085 0 0 1-2.043 1.665zm-142.169-102.524c26.811 0 59.19 16.723 96.238 49.704 21.411 19.062 38.25 38.329 44.705 45.987 6.777-39.424-6.833-66.339-19.731-82.153-17.861-21.901-45.851-36.053-71.307-36.053-3.301 0-6.511.25-9.541.741-32.303 5.253-42.938 16.63-46.252 22.058 1.931-.189 3.9-.284 5.888-.284zM610.097 2204.525a2.084 2.084 0 0 1-2.064-1.812c-6.333-47.83.726-80.854 20.982-98.153 24.139-20.617 57.692-10.97 59.109-10.55a2.087 2.087 0 0 1 .106 3.963c-40.189 14.322-67.812 66.018-68.085 66.538a2.085 2.085 0 0 1-3.69-1.943c1.091-2.07 25.877-48.435 63.98-65.916-10.685-1.698-32.404-2.869-48.736 11.1-19.094 16.33-25.666 48.096-19.532 94.415a2.086 2.086 0 0 1-2.07 2.358z"/><path fill="#FFF" d="M376.57 2445.25h2246.85v-45.26H376.57z"/><path fill="#353640" d="M2623.42 2447.335H376.57a2.086 2.086 0 0 1-2.085-2.085v-45.26c0-1.151.934-2.085 2.085-2.085h2246.85c1.151 0 2.085.934 2.085 2.085v45.26a2.086 2.086 0 0 1-2.085 2.085zm-2244.765-4.17h2242.68v-41.09H378.655v41.09zM2101.96 2470.355H589.21a2.086 2.086 0 0 1 0-4.17h1512.75a2.086 2.086 0 0 1 0 4.17z"/></svg>