<!DOCTYPE svg PUBLIC "-//W3C//DTD SVG 1.1//EN" "http://www.w3.org/Graphics/SVG/1.1/DTD/svg11.dtd">
<!-- Uploaded to: SVG Repo, www.svgrepo.com, Transformed by: SVG Repo Mixer Tools -->
<svg fill="#ecd996" width="800px" height="800px" viewBox="0 0 1024 1024" xmlns="http://www.w3.org/2000/svg">
<g id="SVGRepo_bgCarrier" stroke-width="0"/>
<g id="SVGRepo_tracerCarrier" stroke-linecap="round" stroke-linejoin="round"/>
<g id="SVGRepo_iconCarrier">
<path d="M960 95.808H64c-35.184 0-64 28.8-64 64V704c0 35.184 28.816 63.983 64 63.983h416v96.208H320c-17.664 0-32 14.336-32 32s14.336 32 32 32h384c17.664 0 32-14.336 32-32s-14.336-32-32-32H544v-96.208h416c35.184 0 64-28.8 64-63.983V159.808c0-35.2-28.816-64-64-64zM960 704H64V159.808h896V704z"/>
</g>
</svg>