<svg width="18" height="18" viewBox="0 0 18 18" fill="none" xmlns="http://www.w3.org/2000/svg">
<path d="M15.416 6.4246C15.4087 5.88082 15.3069 5.34244 15.1151 4.83355C14.9488 4.4043 14.6948 4.01447 14.3693 3.68896C14.0438 3.36345 13.6539 3.10942 13.2247 2.94309C12.7223 2.75452 12.1916 2.65255 11.6552 2.64154C10.9645 2.61067 10.7455 2.60205 8.99216 2.60205C7.23884 2.60205 7.01411 2.60205 6.32843 2.64154C5.79221 2.65264 5.26176 2.7546 4.75963 2.94309C4.33032 3.1093 3.94043 3.36329 3.6149 3.68882C3.28938 4.01434 3.03539 4.40423 2.86918 4.83355C2.68023 5.33551 2.57848 5.86609 2.56834 6.40234C2.53747 7.09376 2.52814 7.31275 2.52814 9.06607C2.52814 10.8194 2.52814 11.0434 2.56834 11.7298C2.57911 12.2668 2.68035 12.7967 2.86918 13.3C3.03566 13.7292 3.28984 14.1189 3.61548 14.4443C3.94111 14.7697 4.33104 15.0236 4.76035 15.1898C5.2611 15.3859 5.79165 15.4952 6.32915 15.5129C7.02057 15.5437 7.23955 15.5531 8.99287 15.5531C10.7462 15.5531 10.9709 15.5531 11.6566 15.5129C12.193 15.5023 12.7238 15.4006 13.2261 15.212C13.6552 15.0455 14.045 14.7914 14.3705 14.4659C14.696 14.1404 14.9501 13.7507 15.1166 13.3216C15.3054 12.819 15.4066 12.2891 15.4174 11.7513C15.4483 11.0606 15.4576 10.8416 15.4576 9.08761C15.4562 7.33429 15.4562 7.11171 15.416 6.4246ZM8.98785 12.3817C7.15411 12.3817 5.6686 10.8962 5.6686 9.06248C5.6686 7.22874 7.15411 5.74323 8.98785 5.74323C9.86817 5.74323 10.7124 6.09294 11.3349 6.71542C11.9574 7.3379 12.3071 8.18216 12.3071 9.06248C12.3071 9.9428 11.9574 10.7871 11.3349 11.4095C10.7124 12.032 9.86817 12.3817 8.98785 12.3817ZM12.4392 6.39445C12.3375 6.39454 12.2368 6.37459 12.1429 6.33572C12.0489 6.29686 11.9636 6.23985 11.8917 6.16796C11.8198 6.09607 11.7628 6.01071 11.7239 5.91676C11.6851 5.82282 11.6651 5.72213 11.6652 5.62046C11.6652 5.51886 11.6852 5.41827 11.7241 5.3244C11.763 5.23054 11.82 5.14526 11.8918 5.07342C11.9636 5.00158 12.0489 4.9446 12.1428 4.90572C12.2366 4.86684 12.3372 4.84683 12.4388 4.84683C12.5404 4.84683 12.641 4.86684 12.7349 4.90572C12.8288 4.9446 12.914 5.00158 12.9859 5.07342C13.0577 5.14526 13.1147 5.23054 13.1536 5.3244C13.1925 5.41827 13.2125 5.51886 13.2125 5.62046C13.2125 6.04838 12.8664 6.39445 12.4392 6.39445Z" fill="white"/>
<path d="M8.98783 11.2185C10.1786 11.2185 11.1439 10.2531 11.1439 9.06236C11.1439 7.87157 10.1786 6.90625 8.98783 6.90625C7.79705 6.90625 6.83173 7.87157 6.83173 9.06236C6.83173 10.2531 7.79705 11.2185 8.98783 11.2185Z" fill="white"/>
</svg>
