<svg width="19" height="18" viewBox="0 0 19 18" fill="none" xmlns="http://www.w3.org/2000/svg">
<path d="M15.2517 2.61572H3.76394C3.57352 2.61572 3.3909 2.69137 3.25625 2.82602C3.1216 2.96066 3.04596 3.14329 3.04596 3.33371V14.8215C3.04596 15.0119 3.1216 15.1945 3.25625 15.3292C3.3909 15.4638 3.57352 15.5394 3.76394 15.5394H15.2517C15.4421 15.5394 15.6247 15.4638 15.7594 15.3292C15.894 15.1945 15.9697 15.0119 15.9697 14.8215V3.33371C15.9697 3.14329 15.894 2.96066 15.7594 2.82602C15.6247 2.69137 15.4421 2.61572 15.2517 2.61572ZM6.87928 13.6275H4.96082V7.45997H6.87928V13.6275ZM5.92005 6.61777C5.62528 6.61777 5.34258 6.50067 5.13415 6.29224C4.92571 6.0838 4.80861 5.8011 4.80861 5.50633C4.80861 5.21156 4.92571 4.92886 5.13415 4.72042C5.34258 4.51199 5.62528 4.39489 5.92005 4.39489C6.21483 4.39489 6.49752 4.51199 6.70596 4.72042C6.9144 4.92886 7.03149 5.21156 7.03149 5.50633C7.03149 5.8011 6.9144 6.0838 6.70596 6.29224C6.49752 6.50067 6.21483 6.61777 5.92005 6.61777ZM14.0584 13.6275H12.1421V10.6284C12.1421 9.91332 12.1292 8.99358 11.1455 8.99358C10.1475 8.99358 9.99605 9.77331 9.99605 10.5782V13.6282H8.08119V7.46068H9.91923V8.3036H9.94579C10.2007 7.81896 10.8268 7.30775 11.758 7.30775C13.6994 7.30775 14.0577 8.58433 14.0577 10.2457V13.6275H14.0584Z" fill="white"/>
</svg>
