<svg width="18" height="18" viewBox="0 0 18 18" fill="none" xmlns="http://www.w3.org/2000/svg">
<path d="M14.3124 6.2038C14.3217 6.32945 14.3217 6.45438 14.3217 6.57931C14.3217 10.4026 11.4117 14.8081 6.09361 14.8081C4.45517 14.8081 2.93305 14.3335 1.65216 13.5093C1.88479 13.5359 2.1088 13.5452 2.35076 13.5452C3.65246 13.5483 4.9173 13.1131 5.9414 12.3095C5.33788 12.2986 4.75283 12.0995 4.26795 11.74C3.78307 11.3805 3.42256 10.8785 3.23675 10.3042C3.41553 10.3308 3.59503 10.3487 3.78314 10.3487C4.04233 10.3487 4.30296 10.3128 4.54492 10.2504C3.88995 10.1181 3.30099 9.7631 2.8782 9.24568C2.45542 8.72825 2.22489 8.08036 2.22583 7.41217V7.37627C2.61139 7.59095 3.05869 7.72521 3.53256 7.74316C3.13558 7.47936 2.81007 7.1214 2.58507 6.70121C2.36006 6.28103 2.24257 5.81168 2.24306 5.33504C2.24306 4.79799 2.38594 4.30545 2.63652 3.87609C3.36322 4.77 4.26958 5.5013 5.29689 6.02262C6.32421 6.54395 7.44957 6.84368 8.6001 6.9024C8.55558 6.687 8.5283 6.46371 8.5283 6.2397C8.52811 5.85986 8.60279 5.4837 8.74806 5.13274C8.89333 4.78177 9.10635 4.46288 9.37494 4.1943C9.64353 3.92571 9.96242 3.71269 10.3134 3.56742C10.6643 3.42214 11.0405 3.34747 11.4203 3.34766C12.2532 3.34766 13.0049 3.6966 13.5334 4.26093C14.1808 4.13573 14.8017 3.89937 15.3685 3.56233C15.1527 4.23065 14.7006 4.79734 14.097 5.15626C14.6712 5.09076 15.2324 4.93975 15.762 4.70824C15.3665 5.28485 14.8764 5.79049 14.3124 6.2038Z" fill="white"/>
</svg>
