<?xml version="1.0" standalone="no"?>
<!DOCTYPE svg PUBLIC "-//W3C//DTD SVG 20010904//EN"
 "http://www.w3.org/TR/2001/REC-SVG-20010904/DTD/svg10.dtd">
<svg version="1.0" xmlns="http://www.w3.org/2000/svg"
 width="128.000000pt" height="128.000000pt" viewBox="0 0 128.000000 128.000000"
 preserveAspectRatio="xMidYMid meet">

<g transform="translate(0.000000,128.000000) scale(0.100000,-0.100000)"
fill="#000000" stroke="none">
<path d="M71 1262 c-19 -10 -43 -34 -53 -53 -17 -31 -18 -70 -18 -569 0 -499
1 -538 18 -569 10 -19 34 -43 53 -53 31 -17 70 -18 569 -18 499 0 538 1 569
18 19 10 43 34 53 53 17 31 18 70 18 569 0 499 -1 538 -18 569 -10 19 -34 43
-53 53 -31 17 -70 18 -569 18 -499 0 -538 -1 -569 -18z m138 -450 c15 -12 31
-50 50 -121 15 -58 30 -100 34 -95 3 5 14 44 25 87 26 102 43 127 86 127 46 0
61 -21 92 -134 l27 -99 29 109 c30 112 50 144 90 144 14 0 18 -5 14 -17 -3
-10 -21 -79 -41 -153 -20 -74 -40 -152 -46 -172 -7 -28 -15 -38 -30 -38 -41 0
-65 41 -95 163 -15 65 -33 116 -38 114 -6 -2 -23 -55 -38 -118 -22 -88 -34
-119 -54 -136 -51 -46 -58 -37 -103 135 -22 86 -45 172 -50 190 -8 28 -7 32 9
32 10 0 28 -8 39 -18z m539 -4 c-2 -12 -18 -31 -36 -41 l-33 -19 7 28 c11 49
69 78 62 32z m128 -13 c18 -20 41 -49 51 -65 22 -38 34 -38 56 0 32 54 83 100
111 100 14 0 26 -2 26 -5 0 -3 -27 -46 -60 -95 l-61 -90 61 -90 c33 -49 60
-92 60 -95 0 -3 -11 -5 -24 -5 -31 0 -68 30 -103 85 -15 25 -32 45 -38 45 -5
0 -23 -20 -38 -45 -35 -55 -72 -85 -103 -85 -13 0 -24 2 -24 5 0 3 27 46 60
95 l60 89 -60 87 c-33 48 -60 91 -60 96 0 4 12 8 26 8 17 0 38 -12 60 -35z
m-126 -174 c0 -148 -7 -171 -51 -171 -18 0 -19 8 -19 135 l0 135 33 20 c17 11
33 20 35 20 1 0 2 -63 2 -139z"/>
</g>
</svg>
